<?xml version="1.0" encoding="UTF-8"?>
<svg id="Layer_1" xmlns="http://www.w3.org/2000/svg" version="1.1" viewBox="0 0 1088.5 994.2">
  <!-- Generator: Adobe Illustrator 30.1.0, SVG Export Plug-In . SVG Version: 2.1.1 Build 136)  -->
  <defs>
    <style>
      .st0 {
        fill: #fff;
      }
    </style>
  </defs>
  <path class="st0" d="M413.1,222.8c-82.2,0-141.9,59-141.9,140.3s59.7,140.3,141.9,140.3,141.9-59,141.9-140.3-59.7-140.3-141.9-140.3M478.3,363.1c0,39.9-27.4,68.9-65.3,68.9s-65.3-29-65.3-68.9,26.8-68.9,65.3-68.9,65.3,28.3,65.3,68.9"/>
  <path class="st0" d="M946.6,539.1c-82.2,0-141.9,59-141.9,140.3s59.7,140.3,141.9,140.3,141.9-59,141.9-140.3-59.7-140.3-141.9-140.3M1011.9,679.4c0,39.9-27.4,68.9-65.3,68.9s-65.3-29-65.3-68.9,26.8-68.9,65.3-68.9,65.3,28.3,65.3,68.9"/>
  <rect class="st0" x="858.9" y="432" width="175.5" height="71.4"/>
  <path class="st0" d="M892.4,854.8c-.4,39.4-27.7,67.9-65.2,67.9s-37.3-8.2-48.9-21.8c-10.3-12.1-16.3-28.4-16.3-47.1v-118.3h.2v-11.1c0-81.3-59.7-140.3-141.9-140.3s-77.6,14.6-103.6,41.3c-25.9-26.8-62.2-41.3-103.6-41.3s-46.3,5.1-65.6,14.3v-23.8h-76.3v280.7h76.3v-119.9h.3v-11.1c0-40.6,26.8-68.9,65.3-68.9s65.3,28.3,65.3,68.9v11.1h.1v119.9h76.3v-119.9h.1v-11.1c0-40.6,26.8-68.9,65.3-68.9s64.2,27.2,65.2,66.5h-.1v131.9c0,22.9,4.7,44,13.3,62.5,1.9,4.1,4,8.1,6.3,12,2.3,3.9,4.8,7.6,7.4,11.1,25.1,33.9,66,54.7,114.8,54.7h11.1v-.4c76.1-5.1,130.3-61.8,130.7-138.9h-76.6Z"/>
  <path class="st0" d="M153,140.3c0-27.2,10.9-48.4,30.6-59.9,20.4-11.8,47.1-11.5,68.1.6,11.4,6.6,20,16,25.3,27.6l62-45.1C314.7,24.5,271.2,0,218.2,0,136,0,76.4,59,76.4,140.3v526.5c0,39.9-27.4,68.9-65.3,68.9H0v71.4h11.1c82.2,0,141.9-59,141.9-140.3v-372.6h81.1v-71.6h-81.1v-82.3Z"/>
  <path class="st0" d="M673.1,242.1v-19.3h-75.6v280.6h75.6v-153.3c.1-24,21.3-55.9,55.4-55.9h24.7v-71.4h-24.7c-23.2,0-40.3,9.2-55.4,19.3"/>
</svg>