<?xml version="1.0" encoding="UTF-8"?>
<svg id="Layer_1" xmlns="http://www.w3.org/2000/svg" version="1.1" viewBox="0 0 801 1038.5">
  <!-- Generator: Adobe Illustrator 30.1.0, SVG Export Plug-In . SVG Version: 2.1.1 Build 136)  -->
  <defs>
    <style>
      .st0 {
        fill: #050505;
      }

      .st1 {
        fill: #010101;
      }

      .st2 {
        fill: #f89728;
      }

      .st3 {
        fill: #c9cacc;
      }

      .st4 {
        fill: #0d0a0a;
      }

      .st5 {
        fill: #b30838;
      }
    </style>
  </defs>
  <path d="M787.8,219.6l-2.8-14.9-14.8-3.1c-1-.2-99.1-20.8-186.4-69.5C459.4,62.5,417.5,18.5,417.2,18.1L400.5,0l-16.6,18c-.4.5-42.4,44.5-166.7,114.1C130,180.8,31.8,201.4,30.8,201.6l-14.8,3.1-2.8,14.9c-17.3,93.1-17.6,186.8-.7,278.8l7.5,36.6,2.1,8.5c23.7,96.5,65.7,186.7,124.8,268.1,64.1,88.3,145.5,162.2,242,219.9l11.6,6.9,11.6-6.9c96.5-57.6,177.9-131.6,242-219.9,59.1-81.4,101-171.5,124.8-268.1l9.6-45.1c16.9-92,16.6-185.7-.7-278.8h0Z"/>
  <path class="st2" d="M765.6,223.7s-101.6-20.9-192.8-71.9c-131.2-73.4-172.3-118.5-172.3-118.5,0,0-41.2,45.1-172.3,118.5-91.2,51-192.8,71.9-192.8,71.9-18.7,100.6-16.5,201.3,4.7,297.3h720.9c21.2-95.9,23.4-196.7,4.7-297.3"/>
  <path class="st5" d="M400.5,1012.1c190.9-114,316.5-292.3,360.4-491.1H40c44,198.8,169.5,377.2,360.5,491.1"/>
  <path class="st1" d="M145.4,656.2c0-24.5,0-29-.3-34.1-.3-5.5-1.6-8-6.9-9.2-1.3-.3-4-.5-6.3-.5s-2.7-.3-2.7-1.5,1.1-1.4,3.5-1.4c8.5,0,18.7.5,22.1.5,5.5,0,17.7-.5,22.7-.5,10.1,0,20.9,1,29.6,6.9,4.5,3.1,10.9,11.3,10.9,22s-5,22.9-21.2,36.1c14.3,18,25.4,32.4,34.9,42.3,9,9.4,15.7,10.5,18,10.9,1.8.3,3.2.5,4.5.5s1.9.5,1.9,1.3c0,1.3-1.1,1.6-3,1.6h-15.3c-9,0-13.1-.8-17.3-3.1-6.9-3.7-13-11.3-22-23.6-6.5-8.9-13.9-19.8-16-22.2-.8-1-1.8-1.1-2.9-1.1l-14-.3c-.8,0-1.3.3-1.3,1.3v2.3c0,15,0,27.7.8,34.4.5,4.7,1.5,8.2,6.3,8.9,2.4.3,6,.7,7.9.7s1.9.5,1.9,1.3c0,1.2-1.2,1.6-3.2,1.6-9.4,0-21.3-.5-23.7-.5s-13.2.5-19.6.5-3.2-.5-3.2-1.6.6-1.3,2.6-1.3,4.4-.3,5.8-.7c3.2-.6,4-4.2,4.7-8.9.8-6.7.8-19.5.8-34.2v-28.4h0ZM164.4,668.9c0,1.8.3,2.4,1.4,2.9,3.4,1.2,8.2,1.7,12.3,1.7,6.4,0,8.5-.7,11.4-2.8,4.8-3.5,9.5-11,9.5-24.1,0-22.9-15.1-29.5-24.7-29.5s-6.9.2-8.5.6c-1.1.3-1.4.9-1.4,2.2v48.9Z"/>
  <path class="st1" d="M249.4,670.4c0-27.5,18.2-63.1,66.5-63.1s65.1,23.4,65.1,60.2-25.7,66-66.7,66-64.9-34.6-64.9-63.1M358.4,673.5c0-36.1-20.8-58.5-47.1-58.5s-39.6,10.3-39.6,50.4,18.5,60,49.4,60,37.4-5.5,37.4-52"/>
  <path class="st1" d="M406.1,611.5c.5-2.7,1.4-4.2,2.7-4.2s2.2.7,4.4,4.9l43.9,89.5,43.8-90.6c1.3-2.6,2.1-3.8,3.5-3.8s2.4,1.5,2.9,4.9l14.7,98.5c1.5,10.1,3.1,14.8,7.9,16.3,4.7,1.5,7.9,1.6,10,1.6s2.6.1,2.6,1.1-2,1.8-4.2,1.8c-4,0-26.3-.3-32.7-.8-3.7-.3-4.7-.8-4.7-1.8s.6-1.3,1.7-1.8c1-.3,1.5-2.4.8-7l-9.6-70h-.6l-35.1,71.8c-3.7,7.5-4.5,9-6,9s-3.1-3.2-5.6-8c-3.9-7.4-16.6-32-18.5-36.6-1.4-3.4-11.1-22.4-16.7-34.4h-.6l-8.4,62.8c-.3,2.9-.5,5-.5,7.6s2.1,4.5,4.8,5.2c2.9.6,5.2.8,6.8.8s2.4.3,2.4,1.1c0,1.4-1.5,1.8-3.9,1.8-6.8,0-14-.5-16.9-.5s-10.8.5-16,.5-2.9-.3-2.9-1.8,1-1.1,2.6-1.1,2.4,0,4.8-.5c4.5-1,5.8-7.3,6.6-12.7l15.9-103.7Z"/>
  <path class="st1" d="M582.5,690.2c-.9,0-1.1.3-1.5,1.3l-8.7,22.1c-1.6,4-2.4,7.9-2.4,9.8,0,2.9,1.4,5,6.4,5h2.4c1.9,0,2.4.3,2.4,1.3s-.9,1.6-2.7,1.6c-5.1,0-12.1-.5-17.1-.5s-10.6.5-19,.5-3.1-.3-3.1-1.6.7-1.3,2-1.3,3.7-.2,5-.3c7.4-.9,10.4-6.4,13.7-14.5l40.4-99.8c2-4.7,2.9-6.4,4.5-6.4s2.4,1.4,4,5.1c3.9,8.9,29.6,73.2,39.9,97.7,6.1,14.5,10.8,16.7,14.2,17.5,2.4.5,4.8.7,6.8.7s2.1.2,2.1,1.3-1.4,1.6-7.4,1.6-17.6,0-30.4-.3c-2.9-.1-4.8-.1-4.8-1.3s.6-1.3,2.3-1.4c1.1-.3,2.3-1.8,1.5-3.7l-12.9-33.1c-.4-.9-.8-1.1-1.6-1.1h-35.9ZM615.4,682.1c.8,0,.9-.4.8-.9l-14.5-39.6c-.1-.7-.3-1.5-.8-1.5s-.8.8-.9,1.5l-14.8,39.5c-.2.7,0,1.1.6,1.1h29.7Z"/>
  <path class="st2" d="M145.4,652.6c0-24.5,0-29-.3-34.1-.3-5.5-1.6-8-6.9-9.2-1.3-.3-4-.5-6.3-.5s-2.7-.3-2.7-1.5,1.1-1.4,3.5-1.4c8.5,0,18.7.5,22.1.5,5.5,0,17.7-.5,22.7-.5,10.1,0,20.9,1,29.6,6.9,4.5,3.1,10.9,11.3,10.9,22.1s-5,22.9-21.2,36.1c14.3,18,25.4,32.4,34.9,42.3,9,9.3,15.7,10.5,18,11,1.8.3,3.2.4,4.5.4s1.9.5,1.9,1.3c0,1.3-1.1,1.6-3,1.6h-15.3c-9,0-13.1-.8-17.3-3.1-6.9-3.8-13-11.3-22-23.7-6.5-8.9-13.9-19.8-16-22.2-.8-1-1.8-1.1-2.9-1.1l-14-.3c-.8,0-1.3.3-1.3,1.3v2.3c0,15,0,27.7.8,34.4.5,4.7,1.5,8.2,6.3,8.8,2.4.3,6,.7,7.9.7s1.9.5,1.9,1.3c0,1.2-1.2,1.6-3.2,1.6-9.4,0-21.3-.5-23.7-.5s-13.2.5-19.6.5-3.2-.5-3.2-1.6.6-1.3,2.6-1.3,4.4-.3,5.8-.7c3.2-.6,4-4.2,4.7-8.8.8-6.8.8-19.5.8-34.3v-28.3h0ZM164.4,665.3c0,1.8.3,2.4,1.4,2.9,3.4,1.1,8.2,1.6,12.3,1.6,6.4,0,8.5-.6,11.4-2.7,4.8-3.6,9.5-11,9.5-24.2,0-22.8-15.1-29.5-24.7-29.5s-6.9.2-8.5.6c-1.1.3-1.4,1-1.4,2.3v48.9Z"/>
  <path class="st2" d="M249.4,666.8c0-27.5,18.2-63.1,66.5-63.1s65.1,23.4,65.1,60.2-25.7,66-66.7,66-64.9-34.6-64.9-63.1M358.4,669.8c0-36.1-20.8-58.5-47.1-58.5s-39.6,10.3-39.6,50.4,18.5,60,49.4,60,37.4-5.5,37.4-52"/>
  <path class="st2" d="M406.1,607.8c.5-2.7,1.4-4.2,2.7-4.2s2.2.8,4.4,5l43.9,89.5,43.8-90.6c1.3-2.6,2.1-3.9,3.5-3.9s2.4,1.6,2.9,5l14.7,98.5c1.4,10.1,3,14.8,7.9,16.3,4.7,1.4,7.9,1.6,10,1.6s2.6.2,2.6,1.1-2,1.8-4.2,1.8c-4,0-26.3-.3-32.7-.8-3.7-.3-4.7-.8-4.7-1.8s.6-1.3,1.7-1.8c1-.3,1.5-2.4.8-6.9l-9.6-70h-.7l-35.1,71.8c-3.7,7.6-4.5,9-5.9,9s-3.1-3.2-5.6-8.1c-3.9-7.4-16.6-32-18.5-36.5-1.4-3.4-11.1-22.4-16.7-34.4h-.6l-8.4,62.7c-.3,2.9-.5,5-.5,7.6s2.1,4.5,4.8,5.2c2.9.6,5.2.8,6.8.8s2.4.3,2.4,1.1c0,1.5-1.5,1.8-3.9,1.8-6.8,0-14-.5-16.9-.5s-10.8.5-16,.5-2.9-.3-2.9-1.8,1-1.1,2.6-1.1,2.4,0,4.8-.5c4.5-1,5.8-7.3,6.6-12.7l15.9-103.7Z"/>
  <path class="st2" d="M582.5,686.6c-.9,0-1.1.3-1.5,1.3l-8.7,22.1c-1.6,4-2.4,7.9-2.4,9.8,0,2.9,1.4,5,6.4,5h2.4c1.9,0,2.4.3,2.4,1.3s-.9,1.6-2.7,1.6c-5.1,0-12.1-.5-17.1-.5s-10.6.5-19,.5-3.1-.3-3.1-1.6.7-1.3,2-1.3,3.7-.1,5-.3c7.4-.9,10.4-6.4,13.7-14.4l40.4-99.8c2-4.7,2.9-6.4,4.5-6.4s2.4,1.4,4,5.1c3.9,8.9,29.6,73.3,39.9,97.7,6.1,14.5,10.8,16.8,14.2,17.5,2.4.5,4.8.7,6.8.7s2.1.2,2.1,1.3-1.4,1.6-7.4,1.6-17.6,0-30.4-.3c-2.9-.1-4.8-.1-4.8-1.3s.6-1.3,2.3-1.4c1.1-.3,2.3-1.8,1.5-3.7l-12.9-33.2c-.4-.8-.8-1.1-1.6-1.1h-35.9ZM615.4,678.5c.8,0,.9-.5.8-.9l-14.5-39.6c-.1-.6-.3-1.4-.8-1.4s-.8.8-.9,1.4l-14.8,39.5c-.2.6,0,1.1.6,1.1h29.7Z"/>
  <path d="M766.7,521.6H34.3c-.3,0-.6-.3-.6-.6s.3-.6.6-.6h732.4c.3,0,.6.3.6.6s-.3.6-.6.6Z"/>
  <path class="st3" d="M532.4,399.3c-.8.4-1.6.5-2.2.7.6.2,1.2.4,1.7.4,0-.4.2-.8.5-1.1"/>
  <g>
    <path class="st4" d="M504.7,164.8c-10.1-2.2-20.4-3.5-30.6-4.2-1.2,0-2.4-.1-3.5-.2-.9,0-1.7,0-2.6-.1-1.7,0-3.3-.1-4.9-.1h0c-77.2-1-147.8,35.4-147.8,35.4l1.7,3.2,4.8,13.6,3.1,2.5,1.9,12.5-5,1.2-10.8,3.6-6.5,4-5.9-.3-2-2.2-25.2-12.2-5.9-4.6-4.6-.7-12.3,5-19.5,10.6-2.4,2-4,2.8-12.3,10.3-17.7,18.5-13.1,20.5-3.8,16.5-2.1,7.2h0s-.1,3.2-.1,3.2l-.5,14.9,1.7,22.3,3.4,16.7c.2,1.8.6,3.6,1,5.4.2.9.5,1.8.7,2.7,1,3.8,2.4,7.5,3.7,10.8h0c2.1,5.2,4.1,9.3,5,10.9.1.3.3.6.4.8l7.1,10.2,5.2,7.2,3.7,3.1,5.9,6.2,16.5,9.8,18.8,7.8s0,0,0,0c27.3,11.6,71.3,11.5,92.8,10.7,7.8-.3,12.7-.7,12.7-.7,0,0,85.9-23.6,159.2-51.2.7-.2,1.3-.5,2-.7,5.2-2,10.1-4.3,14.7-7,36.9-21.3,51.8-61.5,57.7-88.9,0,0,0,0,0,0,.1-.5.2-1,.3-1.6h0c3.3-15.8,3.6-27,3.6-27,0,0,6.6-91.1-84.7-110.9ZM568.1,322.2c-1.6-.2-1.7-.1-1.5,1.5,0,0,.6,1.4.3,2.3-.1.5-2.8,5.1-3.4,6.1-1.3,2.2-3.8,6.1-5.3,8.4-.4.6-.5,1.2-.8,1.5-.6.9-2.1,2.5-3.1,3.8-.7,1-1.5,2.1-2.3,3.1-2.5,3.2-6.5,6.2-8.4,9.9-.2,0-.5,0-.8,0-.6,0-1.3.3-1.9.8-1.8,1.3-3.5,3.7-4.9,4.9-3,2.4-7.5,4.6-9.2,8,0,0-.5,0-.8,0-2.1,0-4.3,3.3-6.1,3.8,0,0-87.5,56.7-179.8,56.6h0c-2,0-4.1,0-6.1.1-22.6.3-44.8-1-67.1-5.7-18.4-3.9-33.9-9.1-48-21.9-.9-.9-4.4-3.6-4.6-3.8-.2-.3-3.1-5-3.8-6.1-.7-1.2-2.1-2.7-2.3-3.1-2.5-4.4-6-12.7-8-17.6-4.4-10.8-8-22.1-10-33.6,4.9,4.2,10.1,8,15.9,10.8,32.4,16,84.8,12.8,120,7.4,33.7-5.2,67.6-13.8,100.2-23.6,4.4,13.8-1.8,34.7,20,26.1,6.9-2.7,11.8-7.9,17.8-11.6,1.9-1.2,2.5.5,3.8-3.1,1.4-.2,1.8.6,1.5-1.5,1.5-.3,1.6-.3,3.1-.8,3.2-1.1,4.5-2.7,6.9-3.8,4.2-1.9,15.1-4.8,16.5-9.1,1.6-5-3.9-22.4-2.6-24.4,28.9-16.1,54.7-39.1,66.3-70.8l2.7,4.2c1.5,1.7,3.7,12.5,4.2,13l.8,1.5c0,2.1,1.6,4.8,2.3,6.9l-.7.5.7,1h0c.6,2.9,1.8,16.9,2.3,17.6l.8,1.5c-.3,4.5.3,9.2,0,13.8,0,.3-.7,1.6-.8,3.1-.2,2.5-.9,7.2-.8,9.2l-.8,1.5c-.4.4-2,9.8-2.3,11.5Z"/>
    <path class="st4" d="M549.3,374.9c-6.7,6.6-13.9,12.7-21.5,18.2-75.4,55.2-188.5,60-188.5,60v-.3c0,0-5.3-19.7-5.3-19.7,2,0,4.1,0,6.1-.1h0c92.3.1,179.8-56.6,179.8-56.6,1.9-.5,4-3.8,6.1-3.8.2,0,.7,0,.8,0,1.6-3.5,6.2-5.6,9.2-8,1.4-1.2,3.2-3.6,4.9-4.9l1.5,2.8,6.8,12.4Z"/>
    <path class="st3" d="M572.7,297c0,.3-.7,1.6-.8,3.1-.2,2.5-.9,7.2-.8,9.2l-.8,1.5c-.4.4-2,9.8-2.3,11.5-1.6-.2-1.7-.1-1.5,1.5,0,0,.6,1.4.3,2.3-.1.5-2.8,5.1-3.4,6.1-1.3,2.2-3.8,6.1-5.3,8.4-.4.6-.5,1.2-.8,1.5-.6.9-2.1,2.5-3.1,3.8-.7,1-1.5,2.1-2.3,3.1-2.5,3.2-6.5,6.2-8.4,9.9-.2,0-.5,0-.8,0-.6,0-1.3.3-1.9.8-1.8,1.3-3.5,3.7-4.9,4.9-3,2.4-7.5,4.6-9.2,8,0,0-.5,0-.8,0-2.1,0-4.3,3.3-6.1,3.8,0,0-87.5,56.7-179.8,56.6h0c-2,0-4.1,0-6.1.1-22.6.3-44.8-1-67.1-5.7-18.4-3.9-33.9-9.1-48-21.9-.9-.9-4.4-3.6-4.6-3.8-.2-.3-3.1-5-3.8-6.1-.7-1.2-2.1-2.7-2.3-3.1-2.5-4.4-6-12.7-8-17.6-4.4-10.8-8-22.1-10-33.6,4.9,4.2,10.1,8,15.9,10.8,32.4,16,84.8,12.8,120,7.4,33.7-5.2,67.6-13.8,100.2-23.6,4.4,13.8-1.8,34.7,20,26.1,6.9-2.7,11.8-7.9,17.8-11.6,1.9-1.2,2.5.5,3.8-3.1,1.4-.2,1.8.6,1.5-1.5,1.5-.3,1.6-.3,3.1-.8,3.2-1.1,4.5-2.7,6.9-3.8,4.2-1.9,15.1-4.8,16.5-9.1,1.6-5-3.9-22.4-2.6-24.4,28.9-16.1,54.7-39.1,66.3-70.8l2.7,4.2c1.5,1.7,3.7,12.5,4.2,13l.8,1.5c0,2.1,1.6,4.8,2.3,6.9l-.7.5.7,1h0c.6,2.9,1.8,16.9,2.3,17.6l.8,1.5c-.3,4.5.3,9.2,0,13.8Z"/>
    <path class="st4" d="M254.2,444.4c-30.7-8.8-49.4-17.7-64.9-46.6-1.2-2.2-2-4.7-3.1-6.9,4.5-.9,4.3,7.1,5.7,7.6l1.1-1.5c-2.2,5.2,4.3,7,5.2,8.6,1.1,2.1-1.5,5.3,4,6.4,1,.2,2.2-.5,2.3-.5,2,3-3.1,1.4-2.3,3.8,2.3-1.1,2.8.5,4.6,1.2.9.4,2.9.2,3,.4s0,.3,0,.5c0,.1,0,.3,0,.4,0,.5,0,1,.1,1.7,0,.1,0,.3.1.5,0,.2.1.3.2.5,0,.2.1.3.2.5,0,0,0,.2.2.3.1.2.3.5.6.8-.6-.8.8-2.2,1.6-1.4.9.9-.7,2.3-1.5,1.5,2.9,3.3,5.2,5.7,9.9,5.3l-1.5,1.5c.9,0,1.8.4,2.6.9,6.3,4.3,19.1,7.9,26.7,10,.6.2,2.7,1.4,3.5,1.9,1.2.7,2.2-.4,1.7,2.5Z"/>
    <path class="st3" d="M411.5,321.4c-64.1,14-143.9,41.5-205.3,5.5-12.1-7.1-19.4-15.2-14.4-29.9,1.6-4.8,6-12.4,9.3-16.1,18.7-20.9,44.1-36.1,67.4-51.2,2.4-.6,3.9,1.3,5.3,1.5.2,0,.5,0,.8,0-.4,2.2,2.5,2.3,3.8,3.1.3.1.5.6.8.8.6.3,1.2.6,1.5.8,7.6,5,14.9,10.4,22.7,15.1,18.8,11.5,39.7,21,57.9,33,16.5,10.9,32.4,24.3,49,35.8.7.5,1.4-.1,1,1.7Z"/>
    <path class="st3" d="M483.4,288.6c-1-.6-3.2-.4-3.8-.8-.2-.1-2.2-2.1-3.8-3.1-29.5-18.6-60.1-36-90.2-53.5-1-.6-2.1-1.7-3.1-2.3-1.7-1-3.6-2.1-5.3-3.1-1.2-.7-2.6-1.6-3.8-2.3-2.3-1.3-4.6-2.5-6.9-3.8-1.2-.7-2.3-1.1-3.1-1.5-8.2-4.6-17.9-9.5-26-14.5-1-.6-2.4-1.4-3.1-2.3.2-.5.6-1,.8-1.5l2.3-.8c3.3.2,9.4-2.8,13-3.8.8-.2,1.5-.5,2.3-.8,4.1-1.2,8.1-2.6,12.2-3.8,2.5-.8,5.1-1.5,7.6-2.3.7-.2,2.3.4,2.9-.2.4-.3,0-1.2.1-1.4,0,0,.5,0,.8,0,1.8-.3,2.7-.4,4.6-.8,2.4-.5,17.7-3.1,18.3-3.8l1.5-.8c1.4.1,3.1,0,4.6,0,.7,0,1.4-.7,1.5-.8,1.5-.1,3.1.1,4.6,0,1.4-.2,2.6-.7,3.1-.8,1-.1,2,0,3.1,0,.8,0,1.9.2,2.3-.8.5,0,1,0,1.5,0,1.2,0,3.2.4,3.8-.8,1.5.1,3.1,0,4.6,0,2,0,3.8-.7,4.6-.8,2.3,0,4.6,0,6.9,0,2.2,0,4.8-.7,6.1-.8,5.6-.2,11.3,0,16.8,0,.8,0,3.3.7,5.3.8.7,0,1.5,0,2.3,0,.5,0,1,0,1.5,0,1,0,2,0,3.1,0,.5,1.1,2,.7,3.1.8,2,0,4.2.1,6.1,0,.4,1,1.5.7,2.3.8,15.9.6,30.4,4.6,42.4,15.3,4.1,3.7,12.7,11.9,13.4,17.2,3.7,32-35.5,63.6-60.4,76.8Z"/>
    <path class="st3" d="M481.8,325.3c-50.9-30.4-98.5-66.1-150.2-95.5-2.1-2.3-2.2-9.7-3-13-.9-4-4.7-6.4,1.9-5.3.2,0,.5,0,.8,0-.2,1.5,0,1.8,1.5,1.5.3.3,1.1.4,1.5.8,1.8,1.4,3.8,3.1,6.1,3.1,1.9,1.9,4.7,3.9,7.7,3.8-.5,2.2,2.2,2.1,3.8,2.3.4,1,5,3.1,6.1,3.1,1,2.7,5.9,4,8.4,5.3,1.1.6,2.1,1,3.1,1.5,2.3,1.2,4.6,2.6,6.9,3.8,1.6.9,3.2,1.5,4.6,2.3,30.3,16.6,61.1,33.5,90.9,50.4,3.1,1.7,5.6,4.7,9,5.5.3,1.5,0,3,.1,4.5,0,.2,0,.5,0,.8.1,6-.2,12,0,18,0,2.5,1.1,4.6.8,7.2Z"/>
    <path class="st3" d="M480.3,331.1c0,1.2-1.1,1.8-1.6,2.6-5.3,1.2-9.8,4.6-14.5,6.9-.5.2-1,.5-1.5.8-2.1,1-4.1,2.1-6.1,3.1-2.4,1.2-5.1,1.7-7.4,2.8-1.2.6-2,3.3-4.8,2.5-.4-3.6-.3-8.2-.9-11.8-3.8-23.6-13.7-22.3-31-33.9-16.5-11.1-31.3-24.5-48.4-34.9-14.5-8.8-30.2-15.8-45-24.1-1.1-.6-2.3-1.1-3.1-1.5-1.2-.7-5.2-3-3.8-4.6.2-.3,6-1.9,7.1-2.4.6-.2.2-.8,2.1-1.5,1.4-.5,7.7-2.3,8.6-2.2.9.2,9,5.1,10.7,6.1,47.2,27.8,92,60.9,138.1,90.8.5.3,1.6.9,1.6,1.2Z"/>
    <path class="st4" d="M271.1,226.5c-.3-.1-1.1-2.8-4.7-3.7.6,2.6,1.1,4.5,2.3,6.9,2.4-.6,3.9,1.3,5.3,1.5-.6-1.5,1.4-1.4,1.5-2,1-5.1-3.6-2.5-4.5-2.7ZM331.7,229.8c-2.1-2.3-2.2-9.7-3-13-.9-4-4.7-6.4,1.9-5.3.1-2.5.6-3.7-2.7-3.1-2.3.4-1.2,2.5-2,3-.4.3-3.5.2-3.7,0-.1-.1,0-2-.5-2.9-.4-.8-1.3-1.5-1.6-2.3-.4-1.3.7-3.7-.3-5.4,1.9-.6,1.8,1.8,2.5,2.1,4.3,2.3,2.3-2.6,2.1-5.2-1.9,1.2-8.3,2.5-5.8-1.6.6-1,12.9-4.6,14.9-6.6,2.1.1,8.5-.3,10-1.4,1.6-1.1-.8-4.6,3.3-3.5.7.2.9,3.3,4.6,2.3.7-.2.7-1.5,1.3-1.9,1.1-.6,2.8-.4,3.5-1.2.7-.9-.9-3.3-.5-3.8.1-.2,3.8-.8,4.1-.8.3,0,1.3,2.9,4.3,1.6-.5-5.1.1-3,2.4-4,6.6-2.9,6.7-.8,12.3-1.5,3.1-.4,3.8-2.9,4-2.9,3,0,1.5,5.4,5.7,3.8-2-4.8,1.6-3.1,4.2-4.7.8-.5.9-1.7,1.8-2.2.7-.3,4.3-.9,5.2-.9.8,0,2.3,3,4.2,1.6.6-.5-2.2-3.2.4-3.1.7,0,0,2.1,1.5,1.5.6-.3,1.2-1.6,2.2-1.5,1,.2,1.8,2.5,3.1,2.2,2.2-3.5.3-4.1,5-5,1.8-.3,14.1-2,14.8-1.9.5,0,.3,1.5.9,1.5.3,0,4.9,0,5.2,0,.5,0,.4-1.4,1-1.5,1.6-.4,3.5.3,5.1,0,.6-.1.2-1.5,1.6-1.6,2.7-.2,1.9,2,4.2,2.8,4.1,1.4,5.1-.4,8.1-1.2,1.1-.3,2.6.2,3.6,0,.8-.2.7-1.6,1.3-1.9,1.5-1,4.3-.2,6.1-.4v2.3c-.7.7-7-1.6-6.1,1.5h11.5v-1.5c-3.6.7-4.5-1.2-1.5-3.1-51.7-2.7-104,11.6-150.5,33.2-1.5.7-4.7,1.2-5.6,1.8-2.2,1.6,4.3,16,5.3,19.2,1.2,4.3,2.3,8.8,2.7,13.3-.2.7-9.9,3.1-11.7,3.7-3.4,1.2-9,4.9-12,4.1-1.8-.5-5.7-2.8-7.6-3.8-8.5-4.3-17-9-25.3-13.5-1.6-.9-2.4-2.8-5.7-3-2,0-18.4,8.8-21.4,10.5-28.8,16.4-66.4,49.6-66,85.7,1.8.4,1.7-.8,2.1-2.1.4-1.5,1.4-9.8,1.8-10.1,1.6-1.6,1.2,1.9,2.3,1.5,1.9-3.8-.4-2.5-1-4-1.9-4.2,1.7-6.1,1.7-6.4,0-.6-.7-1.3-.3-2.5.1-.3,3.2-5.9,3.5-6.1.5-.4,2,1,2.2.7,0-1.6.3-5.8,1.1-6.9,1-1.2,3.1-.5,3.5-.7.3-.2-2-5.5,2.3-3.1-1.6-5.2,3.7-5.3,4.5-6.2.5-.6-.3-2.8.8-4.2,1-1.3,3.9-1,5.4-2.2,1.5-1.1,1.4-3.1,2.3-3.8.9-.7,4.4-.9,4.6-1.2.3-.4-1.4-2.7-.4-4.6.8-1.4,3-1.4,3.9-2.2,1-.9.8-2.4,1.3-2.9,1.1-1.3,6.1-.9,7.3-1.9,1.1-.9.4-4.5,2.2-5.1.4-.1,6.3,1.2,4.5-.8-.4-.5-2-.6-1.9-1.1.2-4.4,7.8,1.8,9.2.4,1.6-1.6-2.3-2.3-1.5-3.8h3.8c-1.7-4.9,0-2.1,2.3-3.5.7-.4.8-1.8,1.6-2.2,2.2-1.3,7.6-1.7,8.4-2.3.8-.5.4-3.3,3.6-4,6.9-1.6,5.4,1.8,7.8,3.2,1.3.8,2.7.1,3.8.4-.1-.6.2-1.6-.3-2.3-1.1-1.4-3.1.5-2.7-2.6.3-2.2,2.5.7,2.6.8,3,2,2.2,2.5,2.9,3.2.9.8,18.2,8.5,20.7,9.5,2.5,1,3.6,2.7,5.9,2.9l-2.3,1.5c3.8.3,9.5,1.6,13.2.7.6-.1.6-1.3,1.1-1.4,2.2-.8,11.1-4.6,12.1-4.7.6,0,4,1.4,4.1,1.6.4.5.2,1.9-1.1,1.5-.9-.2.4-1.9-1.5-1.5-.9.1.8,2.2.4,3.1,1.4-.5,7.7-2.3,8.6-2.2.9.2,9,5.1,10.7,6.1,47.2,27.8,92,60.9,138.1,90.8-.5-3.9,2.7-1.6,3.1-4.6-50.9-30.4-98.5-66.1-150.2-95.5ZM449.7,161c.5.3-.4,1.3-1.5.7-.5-.3.4-1.3,1.5-.7ZM339.3,186.2c.5.2.5.5,0,.8v-.8Z"/>
    <path class="st4" d="M475.7,284.8c-.7,3.2-4,2.5-3.8,4.6-29.8-16.9-60.6-33.9-90.9-50.4,1.4-2.4,5.4-3.1,5.4-5.7,0-.2-3.2-.8-.8-2,30,17.4,60.7,34.9,90.2,53.5Z"/>
    <path class="st4" d="M190.7,386.4c-3.2,1-2.3-1.5-4.6-1.5l-.8,3.8c-.6-1.2-2.2-3.4-3.1-4.6-5.1-20.4-10-36.8-10-58.5l1.6-13.4c0,.1.8.2.8,1.9,0,4.2-.6,28.8.4,30.3.4.6,1.8.5,2,1.2.1.9-.9,2.9-.9,4.5,0,2.3,1.1,4.2,1.3,6.2,0,.9-.8,3-.5,3.3.2.2,2-.2,2.3,0,.2.2-.8,2.4-.7,3.4.4,8.4,2.9,12,7.4,18.3.5.7.1,1.9.2,2,1.7,1.9,1.4-2.2,1.5-2.3,1.7-1.7,4.4,3.3,3.1,5.3Z"/>
    <path class="st4" d="M363.4,218.3c-2.5.6-5.4-1-8.2-1.2-1.1,0-2.2.6-3.3.5,1.8-2.1-.8-3.3-2.9-4.3-5.2-2.6-8.7-2.6-12.7-7.9-.9-1.2.5-.7,1.1-1.5,8.1,5,17.8,9.9,26,14.5Z"/>
    <path class="st4" d="M542.5,362.5c-.8,1.2-2.1,2-3,3.3-.6.9-.2,2.8-1.2,3.4-1,.7-7.3,1.5-8.5,2.2-.9.6-.7,2.7-1.9,3.5-.5.3-.6-1.9-1.1-2.3,1.6-3.5,6.2-5.6,9.2-8,1.4-1.2,3.2-3.6,4.9-4.9.6-.5,1.3-.8,1.9-.8.4,1.7.1,2.7-.4,3.6Z"/>
    <path class="st4" d="M504.7,164.8c-5.1-.4-11.3-2-15.7-2.3-2.2-.2-4.4,1.2-6.6.7-.5-.1-1.1-1.8-5.5-2.3-1.4-.2-3.1,1-2.7-1.5,9.9.6,18.4,1.4,28.1,3.6,1.4.3,2.9-.4,2.4,1.7Z"/>
    <path class="st4" d="M350.4,195.4c-3.6,1.1-9.7,4-13,3.8-.4,0-1.3-1.1-2.3-.8-.1.5.1,1.1,0,1.5-.1.5-.6,1-.8,1.5-1-1.5.3-6.4.8-6.9.1-.1,3.2.1,3.4.2.5.1,0,1.2,1.5,1.4,4.5.6,4-1.5,5.3-1.6,1.3-.2,4.1-.3,5,.8Z"/>
    <path class="st4" d="M478.8,333.7c-.3.5-.1,1.7-1.1,2.4-2.2,1.6-6.2.5-4.3,5.3-1.4-1.2-6.5-1.9-7.5-.7-.7.8,1,4.4-1.2,3.7l-.4-3.8c4.7-2.3,9.2-5.7,14.5-6.9Z"/>
    <path class="st4" d="M364.9,190.8c-4.1,1.2-8.1,2.6-12.2,3.8-.7-8.2,2.4-4.1,5.8-3.8,1.9.1,6.9-3.1,6.5,0Z"/>
    <path class="st4" d="M564.3,340.1c-.4,2.1-4.7-.1-6.1.4,1.5-2.3,4.1-6.2,5.3-8.4l2.3,2.7c-5.8,1.3-1.2,3.4-1.5,5.3Z"/>
    <path class="st4" d="M552.9,353.5c-4.6-2.3-5.5,6-8,6.1-.6,0-1.1-.8-1.2-.8,1.9-3.8,5.9-6.8,8.4-9.9l.8,4.6Z"/>
    <path class="st4" d="M367.2,226.7l-.8,4.6c-2.5-1.4-7.4-2.7-8.4-5.3,1.4,0,4-.2,5.7.2.5.1,0,2.3,3.4.6Z"/>
    <path class="st4" d="M528.4,377.2c-1,.8-4.4-.2-4.6,0-.5.5,1.3,2.9-1.9,2.3-1.9-.4-2-1.4-1.9-3.1,1.9-.5,4-3.8,6.1-3.8,1.4,1.6-2.6,2.6-1.5,3.8.1.2,3.6-1.5,3.8.7Z"/>
    <path class="st4" d="M456.6,344.3c2-1,4.1-2,6.1-3.1.6,3.3-7.2,9.9-6.1,3.1Z"/>
    <path class="st4" d="M373.3,223.6c-3.4,1.2-9.2,1.2-6.9-3.8,2.3,1.3,4.6,2.5,6.9,3.8Z"/>
    <path class="st4" d="M378.7,233.6l-2.3,3.1c-2.3-1.3-4.6-2.6-6.9-3.8,3.2-3.5,1.9.8,4.2.8.8,0-.3-1.9,1.5-1.6.3,0,.7,2.6,3.4,1.5Z"/>
    <path class="st4" d="M559.7,346.6l-5.3-.8c1-1.3,2.4-2.9,3.1-3.8,2.5.9,1.6,2.7,2.3,4.6Z"/>
    <path class="st4" d="M479.5,341.3c-2.4,1.1-3.7,2.7-6.9,3.8-.7-3.9,3.6-1.9,2.6-4.6,2.4,2.2,2-3.3,4.2.7Z"/>
    <path class="st4" d="M382.5,229c-2-.9-2.5,1.5-2.6,1.5-3.2-.1-3-1.8-2.7-4.5,1.7,1,3.7,2.1,5.3,3.1Z"/>
    <path class="st4" d="M278.6,234.3c-1.3-.8-4.2-.9-3.8-3.1,2.6-.1,5.4-2.7,3.8,3.1Z"/>
    <path class="st4" d="M519.3,389c-.7,2.9-6.6.1-4.6-1.9.4-.4,5.1-.2,4.6,1.9Z"/>
    <path class="st4" d="M374.6,185.4c-1.2,1.5-.4,1.7,1,1.5-.1.1.2,1-.1,1.4-.6.6-2.2,0-2.9.2v-4.6c.8.1,2.8-.2,3.1,0,1.6,1.2-1,1.4-1,1.5Z"/>
    <path class="st4" d="M340.5,216.8c-2.3,0-4.3-1.7-6.1-3.1,3.7-2.4,4.6,1.6,6.1,3.1Z"/>
    <path class="st4" d="M295.4,446.7c-.6-3,5.1-1,6.9-1.5.5,3-5.1,1-6.9,1.5Z"/>
    <path class="st4" d="M219,405.5c-3.2.8-3.6-2.2-6.1-3.4l1.5-.4c.2.2,3.6,3,4.6,3.8Z"/>
    <path class="st4" d="M574.7,326.8c-2.9-.7.1-5.6,1.9-3.8.5.5,0,4.2-1.9,3.8Z"/>
    <path class="st4" d="M482.8,290.1c-2.4,1.4-3.8,1.1-3.9-1.8l.6-.5c.7.3,2.9.2,3.8.8,0,0,.3,1-.6,1.5Z"/>
    <path class="st4" d="M210.6,395.5h-3.8c0-2-.8-3.5,1.5-3.1.2.4,1.5,1.9,2.3,3.1Z"/>
    <path class="st4" d="M468.1,347.4c-1.3,3.5-1.9,1.9-3.8,3.1-2.1-2.6,2-2.7,3.8-3.1Z"/>
    <path class="st4" d="M468.1,347.4c.1-.4-.2-1.3,0-1.5.2-.2,1.1,0,1.5,0,.2,2.2-.2,1.3-1.5,1.5Z"/>
    <path class="st4" d="M447.4,177c-1.3,0-3.9.7-6.1.8-.9-2.4,4.6-2,6.1-.8Z"/>
    <path class="st4" d="M414.6,180.1c-.5,0-1.6.6-3.1.8.3-1.8,1-4.1,3-3.8v3.1Z"/>
    <path class="st4" d="M469.6,177.8c-2,0-4.5-.8-5.3-.8,1.4-1.3,6.2-1.6,5.3.8Z"/>
    <path class="st4" d="M381,186.2c-1.9.4-2.8.5-4.6.8-.6-2.4,2.4-1.3,4.2-2.3l.4,1.5Z"/>
    <path class="st4" d="M352,222.9c-1.6-.2-4.3,0-3.8-2.3.1,0,.5-.9,1.1-.8,0,0,.1,0,.2,0,0,0,0,0,0,0,0,0,0,.1.1.2,0,0,0,.2,0,.3,0,0,0,.1,0,.1,0,.1,0,.2,0,.3,0,.1,0,.2,0,.3,0,0,0,0,0,.1,0,0,.1.1.2.1.6,0,1.6-1.1,1.8-.8.2.2-.2,1.7,0,2.3Z"/>
    <path class="st4" d="M434.5,177.8c-.8,0-2.6.7-4.6.8-.8-2.3,3.2-2.1,4.6-.8Z"/>
    <path class="st4" d="M319.1,245l-3.8,1.5.8-3c.8.4,1.9.9,3.1,1.5Z"/>
    <path class="st4" d="M536.4,378h-1.1s0-3,0-3h2.3c.2,1.4,0,2.2-1.1,3Z"/>
    <path class="st4" d="M572,300c.1-1.5.7-2.8.8-3.1,2,1.9,2.6,3.6-.8,3.1Z"/>
    <path class="st4" d="M425.3,178.6c-.6,1.1-2.6.9-3.8.8-.5-3.3,2.6-.9,3.8-.8Z"/>
    <path class="st4" d="M216.7,247.3v2.3h-3c-.6-1.8,1.4-2.1,3-2.3Z"/>
    <path class="st4" d="M345.1,214.5c-.7,2-4.6,2.5-3.8,0h3.8Z"/>
    <path class="st4" d="M196.5,284.2c-.2,0-1.9,4.1-1.9-.9h3.1c.3,2.3.1,1-1.1.9Z"/>
    <path class="st4" d="M282.1,232.8l-1.2,3c-.3-.2-1-.4-1.5-.8l2.7-2.3Z"/>
    <path class="st4" d="M407,180.9c-.2,0-.8.7-1.5.8-.7-3.8,1.9-4.8,1.5-.8Z"/>
    <path class="st4" d="M479.5,178.6c-1,0-2.5.4-3.1-.8,1,0,3.5-2.5,3.1.8Z"/>
    <rect class="st4" x="399.3" y="171.7" width="3" height="1.5"/>
    <rect class="st4" x="203.7" y="401.7" width="1.5" height="3"/>
    <path class="st4" d="M483.4,324.9c-.5-1.3,2.9-1.3,3-1.1.9,1.7-2.4,3-3,1.1Z"/>
    <path class="st4" d="M419.9,179.3c-.4,1-1.5.7-2.3.8-.4-3.1,1.6-.8,2.3-.8Z"/>
    <path class="st4" d="M487.9,179.3c-.8,0-1.9.2-2.3-.8.6,0,2.7-2.4,2.3.8Z"/>
    <rect class="st4" x="510.9" y="399.4" width="2.3" height="1.5"/>
    <rect class="st4" x="481.8" y="292.4" width="2.3" height="1.5"/>
    <path class="st4" d="M217.5,420.8c-.2,1.1-1.2,1.7-2.3,1.5v-1.5h2.3Z"/>
    <path class="st4" d="M572,310.7c-.4,0-1.4-.1-1.5,0l.8-1.5c0,0,1.1.7.8,1.5Z"/>
    <path class="st4" d="M572.7,283.2l-.8-1.5c.1.1,1.1,0,1.5,0,.3.8-.7,1.4-.8,1.5Z"/>
    <path class="st4" d="M569.7,264.1l-.7-1,.7-.5c.7,2,0,1.5,0,1.5Z"/>
    <path class="st4" d="M567.4,255.7l-.8-1.5c.1.1,1.1,0,1.5,0,.3.7-.8,1.4-.8,1.5Z"/>
    <path class="st4" d="M547.5,361.2c-.8-.8.7-2.4,1.5-1.5.8.8-.7,2.4-1.5,1.5Z"/>
    <path class="st4" d="M332.8,212.9c-1.5.2-1.8,0-1.5-1.5,2.9.7.9.9,1.5,1.5Z"/>
    <path class="st4" d="M399.3,182.4c.2-.2-.2-1.4,0-1.5.5-.5,1.4.7,1.5.8l-1.5.8Z"/>
    <path class="st4" d="M473.4,177.8c-.5,0-1,0-1.5,0-.5-2.3,2-2.4,1.5,0Z"/>
    <path class="st4" d="M352,443.7c-.2-.2-1.3.2-1.5,0-.5-.5.8-1.4.8-1.5l.8,1.5Z"/>
    <path class="st4" d="M568.1,326c-.8-.8.7-2.4,1.5-1.5.8.8-.7,2.4-1.5,1.5Z"/>
    <path class="st4" d="M568.1,322.2c-.5,2.9-1.1,1-1.5,1.5-.2-1.6,0-1.7,1.5-1.5Z"/>
    <path class="st4" d="M220.2,413.1c-2.1-1.2-.5-2.4.4-1.5,0,0,.3,1.6-.4,1.5Z"/>
    <path class="st4" d="M481.1,300c0-.3,0-.5,0-.8,2.2-.3,2.2,1.1,0,.8Z"/>
    <path class="st4" d="M277.5,446.7v-.8c.5.2.5.5,0,.8Z"/>
    <path class="st4" d="M218.3,408.9l1.1-1.1c.8.7-1.2,1.9-1.1,1.1Z"/>
    <path class="st4" d="M345.5,187v-.8c.5.2.5.5,0,.8Z"/>
    <path class="st4" d="M460.8,351.2v-.8c.5.3.5.5,0,.8Z"/>
    <path class="st4" d="M446.3,351.2v-.8c.5.3.5.5,0,.8Z"/>
    <path class="st4" d="M456.2,348.9v-.8c.5.3.5.5,0,.8Z"/>
    <path class="st4" d="M223.2,257.3v-.8c.5.2.5.5,0,.8Z"/>
    <path class="st4" d="M570.8,261.8v-.8c.5.2.5.5,0,.8Z"/>
    <path class="st4" d="M514.3,183.2v-.8c.5.2.5.5,0,.8Z"/>
    <path class="st4" d="M454.7,354.3v-.8c.5.3.5.5,0,.8Z"/>
    <path class="st0" d="M585.7,304.6c-1.1-1.3,1-3.4,2.3-2.3.8.7-1.5,3.1-2.3,2.3Z"/>
    <path class="st0" d="M586.1,309.2v-.8c.5.2.5.5,0,.8Z"/>
    <path class="st0" d="M337.4,199.2l-2.3.8c.1-.4,0-1,0-1.5,1-.4,1.9.7,2.3.8Z"/>
    <path class="st0" d="M449.7,161c.5.3-.4,1.3-1.5.7s.4-1.3,1.5-.7Z"/>
    <path class="st0" d="M339.3,186.2c.5.3.5.5,0,.8v-.8Z"/>
  </g>
  <path d="M527.1,399.7s-1.3-1.1-2.3-1.3c-.3,0-.6,0-.8,0-.5,0-.7,0-.7,0l-.5.2v-.5c.2-.4.7-1,1.7-1s.7,0,1.1.2c1.5.5,2,2,2,2.1l.3.9-.7-.6Z"/>
  <path d="M516.2,397.6c0-.3.5-1,1.5-1s.7,0,1.1.2c.2.1.7.4.7.4l.3.2-1,.8h-.1c0,0-.4-.2-.6-.2-.3,0-.6,0-.8,0-.5,0-.7,0-.7,0l-.5.2.2-.5Z"/>
  <path d="M518.8,397.1c.2,0,.6.3.6.3l-.6.5s-.5-.2-.7-.2c-1.2-.2-1.7,0-1.7,0,0,0,.4-1.3,2.3-.6"/>
  <path d="M539.6,543.1c-13.4,0-15.2-21.8-15.5-25.8-3.2-.2-6.8-2.5-9.2-4.4-.1,0-.4-.2-.6-.4,0,1.6.1,3.3.2,4.9.1,2.5.6,9.1.8,10.8v.2c.3,2.5,1,8.2-4.6,11.4-1.7.9-3.5,1.4-5.5,1.4s-3.2-.4-4.3-.6c-.2,0-.5,0-.6-.1h-1c-1.4-.3-3.4-.5-4.9-.6h-.4c-2.8,0-10.8.5-12.1.6-.3,0-.6,0-.9,0-4.5,0-8.2-3.6-8.2-3.7-2.3-2.2-2.5-5.8-.5-8.6l.5-.8.8-.6c.5-.3,1.9-1.3,3.9-1.6,1.7-1.1,4.3-2.6,8.2-4.8-3.5-6.8-18.8-30.2-5.4-37.6,4.9-2.7,12.5-5.4,19.7-7.1,0-.5.2-.9.3-1.3.1-.5.3-2.4,0-3.8-2.1,1.1-4.2,1.7-5.9,1.7s-1.1,0-1.7-.2c-4.5-1-10.4-7.7-11.1-8.6-1-1.4-4.9-8.4-8.4-15.1-9.7-.5-10.6-.7-11.3-.9-1-.3-2.1-.7-8.4-6-2.1-1.8-3.1-4.2-2.8-6.6.3-2,1.5-3.7,3.3-4.6.1,0,.2-.1.4-.2.8-1.1,2.2-2.2,4.4-2.7l.6-.2h.8c1.5,0,2.9.5,4,1.2,0-.8.3-1.5.7-2.2,1.2-2.3,3.6-3.7,6.4-3.7s3.2.4,5.2,1.3l.3.2.3.2c.6.4.7.4.7.4,1.2.2,4,1.1,4.9,1.5,1.6.7,2.8,1.6,5.8,6.9l4.8,4.9c2.2-5.1,4.9-7.4,5.8-8.3,1.4-1.2,3.1-1.7,4.9-2.2.3-.1.8-.3,1.2-.4.7-.6,1.5-1.2,2.4-1.7,0-.3.1-.5.2-.8-.7-1-1.6-2.3-2.3-3.4-2-3.3-1.7-6.3-1.6-8.1v-.6c.3-5.1,6.7-9.5,6.8-9.5.7-.5,1.5-.9,2.2-1.1,1.3-1.5,3.5-4,5.1-5.4,1.3-1.2,3-2.1,4.7-2.7,1.4-2.9,4.3-4.2,8.8-4.2s6.1.3,7.6.6c3.3.5,5.5,2.6,6.7,5.1,2.9,1,4.7,3.6,5,7l1,1.1c.7.7,2.3,2.6,2.8,5.5,1.8,3.4,1.5,7.4,1.3,9.2,0,5.5-1.5,8.7-3,10.5-.2.7-.3,1.2-.6,1.6,5.2,3.2,6.9,10.5,7.4,13.4.4,1.7,2.5,8.8,3.5,13.4,1.5,6.6-.8,12.9-1.1,13.6l-.3.7-.5.6c-.4.6-2.7,3.5-3.6,4.7-1.8,2.1-3.7,3-5.3,3.4.6,2.2,1.1,4.6,1.5,6.9,4.2,5.2,6.5,12.5,6.5,15.1s-.5,3.5-1,4.8h0c.5,1.3.5,2.9.5,6.4,1.8,2,3.3,4.8,5,7.9.2.4.3.7.4.8,8,17.4-12.1,18.8-13.3,18.3-2.6,2.4-11.1,2.7-12.5,2.7"/>
  <path class="st3" d="M538.3,395.9c-1.2-.2-5.5-.5-6.7-.5-5.9,0-2.8,3-2.8,3,0,0-4.7.6-6.7,2.4-2,1.8-5.6,6-5.6,6,0,0-1.6.6-2.6,1.2-1,.6-3.7,2.7-4.1,5-.3,1.5-.5,3.4.7,5.5,1.2,2.1,3.3,4.8,3.3,4.8,0,0,.5,1,0,2.1-.5,1.2-1.3,4.1-1.3,4.1,0,0-2.9,1.4-3.7,2.4-.9,1-4.9,1.6-5.9,2.4-1,.8-3.5,3.1-5.3,9.2-2.1,1.8-3.2,4.1-3.2,4.1l-10.6-10.7s-1.4-4.3-3.4-5c-.7-.2-5.4-1.8-6.5-2.3-3.9-1.5-4.6-.3-3.8.8.8,1.1,3.2,2.2,3.8,2.6.6.3.8,4.5-9.1,3-.5-.1-3.2-1.7-4.8-2.4-4.3-1.4-3.5,2.7-2.7,3.5.9.7,5.2,5.2,6.3,5.5.9.3,13.1.8,13.1.8,0,0,8.3,15.7,9.5,17.2,1.2,1.6,5.8,6,7.7,6.4,1.9.4,7.5-1.6,10.2-6.7l1.1,20.5s-19.1,4.3-22.6,7.2c-7.2,5.7,5.5,27.3,9.8,33.1,1.4,1.9.4,2.3.4,2.3,0,0-13.4,7.3-13.5,7.9-1.3-.4-2.3.4-2.3.4,0,0-.6.9-.2,1.4.5.4,2.7,2.1,4.4,2,1.7-.2,11.1-.7,13.3-.6,2.2,0,5,.5,6.4.6,1.4.2,4.4,1.3,6.9,0,2.4-1.4,2-3.7,1.8-5.9-.3-2.3-.9-11.2-.9-11.2,0,0-.2-10.3-.4-11.6,2.6.3,6.8,1.3,7.6.8,1.3-.8,2.7,1.5,2.7,1.5,0,0,4.3,3.4,6.3,3.1,1.9-.4,2.3-.5,3.3-3.4.7-1,1.4-.8,1.4,1.9s-1.4,27.8,10.5,27.3c7.3-.3,12.6-3.8,12.6-3.8,0,0,2,2.8,4.9,1.8,7.5-2.7,3.4-9.5,2.8-10.6-.6-1-4-8.6-6.2-8.7.1-3.2-.4-8-1-9.3.4-.7,1.7-3.5,1.7-4.8s-2.2-8.4-6.2-12.6c-.9-6.6-4.2-16.6-4.2-16.6,0,0,4.4,1.6,5.7,1.7,1.4.2,2.4-.4,3.3-1.5.9-1.1,3.4-4.4,3.4-4.4,0,0,2-5.1.8-10.3-1.1-5.1-3.6-13.5-3.6-13.5,0,0-1.1-8.2-5.2-10-4-1.8-4.8-1.7-4.8-1.7,0,0-1.3-1.7-.3-2.1,1-.3,2.5-1.5,2.9-2,.5-.5,1.2-3.4,1.2-3.4,0,0,2.4-1.1,2.4-8,0,0,.8-4.7-1-7,0-2-1.4-3.3-1.4-3.3l-2.6-2.8s.3-3.5-1.2-3.9c-1.6-.4-2.8-.8-2.8-.8,0,0,0-3.7-2.9-4.1"/>
  <path d="M516.8,408.4c1.3,0,2.2,2.1,2.3,2.6,0,.4-.2.4-.9.3-.6,0-1.2-1.5-2.5-1.4-1.3,0-1.4,1-1.8.9-.5,0,1.6-2.3,3-2.4"/>
  <path d="M526.9,404.9c1.4.5,1.8,1.9,1.8,1.9,0,0-1.3-1.1-2.5-1.3-1.2-.2-1.7,0-1.7,0,0,0,.4-1.3,2.3-.6"/>
  <path d="M540.4,415.8c-.2-.4-.4-.7-.7-.7h-.2s-.1.1-.1.1c-.5.7-1.1,1-1.9,1s-1.6-.5-1.6-.5c0,0-.1,1.9,2,1.9s2.6-1.4,2.6-1.5v-.2c.1,0,0-.2,0-.2Z"/>
  <path d="M546.7,480.3l-1.2-5.6-.6-2-10.2-19.1-.4-.7c-.4-.3-.6-.7-1.5-1.5-.2-.2,0-.5.2-.5,3.6.4,9.8-1.3,11.3-1.8.4.5,10.3,12.1,11.1,11.7.8-.5-10-14.7-10.1-14.7,0,0,1-5.9.8-6.6-.5-1.4-3.4-3.5-4.5-3.5h-.2c-.2-.4-.4-.7-.5-.8l-.2-.3c-.8-1.4-1.4-2.3-1.8-3,2,.7,4,1.3,4.1,1.4h1.1c0,0,1.2-1.5,1.2-1.5l-8.4-2.8c-.7-.2-1.6-1.8-1.6-3.2,0-.9,5.8-6.7,4.7-7-2.3-.8-7.6,5-7.7,6.7-.1,1.1.5,3.6,1.5,4.5-.3.5-.6,1-.6,1.6-10.4.7-14.1,4.4-14.5,6.3,0,0,8.3-3.3,11.2-3.7-1.9,1.8,1.1,5.3,1.1,5.3-.4-.1-1.4-.8-2.4,0-1.9,1.5,0,4.7.4,5.4-.8,0-1.4.2-1.6.5-1,1.2.9,3.6,2.3,5.2.7.7-2.4.5-11.1-6,.3,6.3,10.7,10.1,14.1,10.2,0,.2,13.5,24.8,14,25.6M529.3,446.5c.6-.7,2.2.9,2.7.5.5-.4-3.5-4.9-2.2-5.9,1.5-1,3.2,2.5,4,1.9.8-.7.5-1,.3-1.6-.1-.3-1.8-3.3-1.8-3.4,0-.1-1.9-3-.7-3.6,1.2-.4,2.5,1.6,2.8,2,0,0,2.4,4.2,3.4,3.8.9-.6-1.7-6.7-1.7-6.7-.2-.6-1.3-2.2-.7-2.6.6-.4,1.2-.3,2.7,1.8.2.2,4.4,7.9,5,7.7,0,0,0-1.6-.6-2.8.8.7,2.5,1.2,2.4,2.3,0,.4-.2,3.7-.8,4.5-1.9,2.3-10.7,5.2-13.4,4.8-.3-.3-2-2-1.3-2.8"/>
  <path d="M504.9,479.4l-1.4.9-2.2,1.4c.4.9,9,21.8,17.7,28.4l.2-.8c-11.7-15.8-14.3-29.8-14.3-29.8"/>
  <path d="M537.1,490.1c-5.2.8-8.9,18.1-8.9,18.1,1.3-1.6,1.3,1.2,1.3,1.2,0,0,4.2-14.7,7.9-16.2,3.7-1.5,9.2-.9,9.2-.9,0,0-4.2-3-9.5-2.2"/>
  <path d="M496.8,462.8c.6-.4-1.4-16.8-1.4-16.8l-.8.8-1.3-.8c-.7,1.4,2.9,17.2,3.5,16.8"/>
  <path d="M500.6,449.6l1.3,13.4,2.3-1.3-.6-9.9s1.2.5,1.6.2c.4-.4-1.8-2.4-2-4.8,0-1.8,2-4.1,1.6-4.4-.4-.2-1.1.5-1.1.5.1-1.6.2-3.4.4-4.6.1-1.6,2.3-4.8,2.3-4.8-4.8,1.7-5.7,7.1-5.7,7.1l-.3,4.2c0,0-.4,1.4-.4,2.3s.6,2.1.6,2.1h0Z"/>
  <path d="M554.3,514.4s-.1,16.3-3.6,20.4h1.9c.7-.6,2.1-5.9,2.6-7.9.5-2.2.4-11.1.4-11.1l-1.3-1.4Z"/>
  <path d="M494.9,492.1c-.6,3.4,13.5,16.6,13.5,16.6l3.9-1.8s-13.4-9.8-17.4-14.8"/>
  <path d="M533.5,401.9c.2.2.1,1.4,0,2.2,0,0-.4,1.7,1.8,2.8,1.4.7,2.3,1.9,2.8,2.7.1.2.3.4.3.5.4.4.5.8.2,1.9-.1.4-.3.7-.5,1-.2.2-.4.5-.3.9h0c.1.6.5,1.8,1.6,2.2.2.2.8.9.2,2.7l-.2.5c-.7,1.9,0,6.5,1,6.2,1.1-.3.9-4.3,1.2-4.8.7-.9,1.1-3.3.9-4.6,0-.5-.2-.8-.5-1-1-.7-1.4-1.2-1.4-1.4s.1-.3.3-.4c.2-.3.5-.6.7-1.1.4-.9.1-2.1-.2-3-.3-.7-2.3-3.3-3.5-3.7-1-.3-1.6-.9-1.6-1.4,0-.3,0-.7,0-1,.1-.9.2-1.7-.2-2.2-3.4-4.7-8.4-4.2-8.4-4.2l-2.2,2.4s3.9-2,8,2.8"/>
  <path d="M506.5,432.8c.6.4,4,.9,10,4.7.9-1.5-5.4-5-8.4-6-1.7,0-1.9.4-1.9.5,0,.2,0,.4.3.8"/>
  <path d="M488.4,525.3c-5.3-7.2-16.7-7.5-20.5-3.8-.2-.2-.4-.4-.6-.5-1.6-1.3-6.2-4-8.5-5.3-3.5-3.7-5-4.6-5.7-5-2.9-1.7-8.4-3.7-13.1-4.8-.9-10-1.7-12.3-2.2-13.4,0-.3,1.1-9.2.9-14.7,3,.5,6.9,1.2,10.1,1.2s3.2-.2,4.4-.6c3.1-.8,8.1-2.6,10.2-5.9l.5-.7.2-.8c.2-.7,1.5-7.3-2.4-13.5-2.7-4.2-10.2-12.1-14.3-16.1.2-2.3.3-4.6.3-4.7.2-1.9-.3-3.8-2.6-6.1-.7-.7-5.7-6.4-7.1-7.3-1.4-.8-3.6-1.4-5.4-1.4s-1.2,0-1.9.3c-4.9,1.1-4.4,8.6-4.2,9.2-.6-.4-1.3-.7-2-1-1.7-1.9-4.2-2.9-6.6-3.5-1.3-.9-3.1-1.9-5.5-1.9s-.4,0-.5,0c-3.2.2-3.2.5-4.8,1.8-2.4.5-4.5,1.9-6.1,3.9-1.4.8-3,2.2-4.3,4.4-1.5,1.2-3,3.1-4.3,6.5l-.5,1.2c-1.1,2.9-2.4,6.2-1.5,9.7,0,0,0,.2,0,.3-2.7.8-6.6,2.3-8.7,6.5-.9,1.9-2,4.4-2.8,6.6-1.2,0-15,1.8-14.7,8.3,0,2,1.1,4.1,2.9,5.4-1.3,2.2-1.4,4.5-.2,6.5,1,1.7,2.4,3,3.9,3.6.5,1.6,1.3,3.4,2.5,4.8,1.4,1.7,2.8,3,4.1,3.9-2.6.8-5.3,2.1-7.9,4-3.8,2.6-9.5,8.3-4.6,17.1.8,1.4,3.2,4,15.3,15.9-.4.5-9.9,18,5.6,18.7,3.5,6,15.7-2.6,16.1-2.8.9.2,17.2.3,12.9-12.3,1.1-.2,6.7-1.7,7-1.8,1.8.8,5.8,2.4,8.2,2.7,1.1,0,2.8.2,4.1.2s5.7,0,7.6-.5c.5,0,1.1-.2,1.7-.4,1.7,2.7,4.3,6.1,7.8,8,4.1,2.3,13.5,6.5,16.6,7.9.6.6,7.2,6.1,11.5,6.1,13.8,0,9.5-12.6,9.8-13.3,1.1-3.3,3.2-17.4-.7-22.6"/>
  <path class="st3" d="M440.1,459c-.6-.7-5.9-2.1-8.1-2.3-.8-.8-3.2-1.5-3.2-1.5,0,0,3.4-2.5,3.3-4.3-2.3-11.9-6.4-12.9-6.4-12.9,0,0-1.3-2.7-4.7-3.1-.6-2.6-5.6-3-5.6-3,0,0-1.2-1.7-3.2-1.6-1.4.1-1.9.7-2.6,1.6,0,0-3-.5-5,3,0,0-2.4.5-3.8,4,0,0-1.7.4-3.3,4.6-1.1,2.8-2.4,5.6-1.8,7.7.6,2.1,2.3,4.3,2.3,4.3,0,0-1.6,1.3-3.4,1.9-1.8.5-6.2.9-7.9,4.4-1.8,3.5-4,10.3-4,10.3,0,0-1.1-.6-2.4-.8-1.2-.1-6.4,0-7.6,1-.6.4-2.9.7-2.9,1.6.1,2.6,4.2,1.7,4.2,1.7l-.9,5.4s-1.7,1.7-1.2,2.4c.5.8,1.2,1.1,1.8.9.7-.1,1.8-1.4,1.8-1.4,0,0,0,5.3,2.4,8.3,2.3,3,5,4,5,4,0,0,1.8.7,3.3,0,1.6-.6,4.5-2.9,4.7-3.8.2-.9,1-3.9,1-3.9,0,0,1.2-4.8,1.8-4.9.5,0,1.1.7,1.1.7v9.6s-3.8,7.2-3.8,9c-2,.2-10.7-.7-18.2,4.7-6.2,4.2-4,8.1-2.9,10.1,1.1,2,19.9,20.1,20.5,20.8-.2.6.3,1.4-.6,1.4h-2s-2.9-1.1-3.4,0c-1.2,2.7,1.8,2.5,2,3,0,.5-2.4-.4-2.8,1.1-.5,1.8,0,3.4,1.2,4.9.8,1,2.7.5,3.3.7.6.2.8,1.2,2.3,1.5,3.3,1.3,10.6-4.6,11.5-4.5,3.5,1.8,7.7-1.5,7.9-3.5.3-2,0-3-.8-4.5-.7-1.5-3-3.9-3-3.9,0,0,2.8-.9,3.4-1.2,0,0,.4-.3,1.4.2.9.5,5.1,1.2,6.3,1.2,1.2,0,5.9-2.3,6.6-1.9.7.4,5.3,2.3,7,2.5,1.7.2,8.3.2,10.1-.2,1.8-.3,5.5-1.5,5.5-1.5,0,0,3.1,7.1,7.7,9.8,4.7,2.6,17.1,8.1,17.1,8.1,0,0,5,5.2,8.3,5.2s4.1-2.8,4.1-3.5c0-.7-.1-4.3.5-6.1.7-1.9,1.3-7.6,1.4-10.2.2-2.6,1.1-10-6-11.1-1.1-.2-3.5-.6-4-.6-1,0-.5,2.5-.9,1.6-.4-1.1-1.6-1.4-2.1-1.2-1.3.6-1.9,1.7-1.8,2.3,0,1.1.6,4,.6,4,0,0-5.8-4.6-7.4-5.9-1.6-1.3-8.4-5.2-8.4-5.2,0,0-3.7-3.9-4.8-4.4-.6-.8-10.4-5.2-15.6-5.1,0-4-.3-13.3-2.6-17.9,0-1.3,1.4-14.4.6-17.8-.4-1.5,2-2.7,3.1-2.7s12.4,2.6,15.4,1.3c0,0,5.9-1.5,7.3-3.7,0,0,1.2-4.9-1.7-9.3-2.9-4.5-12.8-14.7-15.4-16.8.3-2.6.6-7.2.6-7.2,0,0,0-1-.7-1.6-.7-.7-5.3-5.9-5.9-6.5-.5-.5-2.6-1.2-3.4-.9-.8.3-.6,2.1,0,2.5.5.5,1.9,1.7,1.9,1.7l.7,2s-.9.5-1.1.9c-.1.4-.1,2.7.2,3.2.3.5,1.4.7,1.4.7,0,0-1,2.3-2,2.3-.9-1.2-2.3-4.9-3.5-3.7-.6.6-.9,1.6-.6,2.6.3,1,1.9,5.7,2.8,6.6.9.8,1.5,1.3,1.5,1.3,0,0,6.3,9.8,6.6,11.6"/>
  <path d="M380,506.3c9-.9,25.4,26.9,26,27.5.6.6,1.6-.7,1.6-.7-.7-1.2-15-30.8-27.5-26.8"/>
  <path d="M378.8,476.8c1.6-.2,4.2-3.3,3.8-3.5-.4-.2-1.7,1.9-4.2,1.9s-1.7-.2-2.7-.4h-.2c-.3.5-2.4.8-2.4.8l.3,1.3,2.1-.5c.3.1,1.8.6,3.4.4"/>
  <path d="M392.4,460c-1.9.2.3,25.8.3,25.8l2-2.6c-.3-1.4-.5-8.9-.5-10,.7.4,9.4-1.4,11.3-4.7,0,0-6.1,1.1-7.6.8-2.7-.4-3.5-1.6-3.6-2.5,0-.3-1-6.9-1.9-6.9"/>
  <path d="M391.2,500.4l-1.7,1.2c12.4,6.5,19.9,30.7,20,31v.3c0,0,4.1,1.4,4.1,1.4,0,0-9.5-28.1-22.3-33.9"/>
  <path d="M420.5,532.8c.5.8,3.4-.7,3.4-.7v-.3c0-.1-.3-11.7,9.1-20.7,0,0-10.2,2.1-12.4,21.6"/>
  <path d="M471.2,530.7l-2.3-1.6s1.1,5.2,1,7.5c0,.4-.2.5-.3.6,0,0-.1.2-.2.2-.9.9-.3,4.6-.3,4.6,0,0,1-2.1,2.1-3.3,0-.1.2-.2.3-.3.5-.5.6-.8.3-2.9,0-.7-.6-4.9-.6-4.9"/>
  <path d="M434.2,459.8c-.5,0-1.3,6.2-1.3,7,0,.1-.2,4.1-4.7,3.4-4.5-.7-6.3-1.6-6.3-1.6,1.6,3.1,9,4.7,10.9,7.3.4.5.7,3.4.7,3.8h1.5v-5.1l1.5-.4c-.7-10.7-1.8-14.4-2.3-14.3"/>
  <path d="M403.9,455.1c-2.7,0-6.6.4-6.8.4l-4.5,1,1.3,1c0,0,5.9-1.2,9.8-1.2s1.2,0,1.6.1c3.4.7,7.4,2.2,7.5,1.6,0-.5-4.8-2.4-7-2.8-.4,0-1-.1-1.8-.1"/>
  <path d="M433,456.8l.3-.2h.1c0-.1.1-.4.1-.4l-.2-.3-1.8-1c-.2,0-8.8,0-8.8,0-2.1,0-8.8,2.7-8.4,3.2.4.5,5.3-1.6,8.6-2,3.5-.5,9.7.7,10,.7"/>
  <path d="M426.1,440.3c1.7-1.8-1.6-3.8-1.7-4.1,0,0,2.3,3,.4,2.2-1.6-2.5-7.8-4.4-8-4.6-.3-.4.8-1.4,4.2,1.1.2-.4-1.9-2.5-4.9-2.3,0-.4-.3-.9-.6-1,0,0,0,0,0,0-.1,0-.3,0-.2,0,.3.3.7,1,.2,1.1-.6,0-.9-1-1.1-1.1-.3-.6-1.7.2-.9.9.2.2.6.3,1,.6.4.2.2.4-.1.2-.5-.1-1-.2-1.7-.2s-1.3.2-1.9.4c-.3,0-.5,0-.2-.3.3-.2.6-.3.9-.5,1.2-.8-.8-2.2-1.1-.2-.2.4-.5.6-.6.7-.9,0,0-1.4,0-1.4,0,0-.1.1-.2.2-.3.2-.7.5-.7.9-.2,0-3.7.2-4.2,2.1,2.6-1.9,3.9-1.8,3.8-1,0,.3-3.1,2.1-4.4,3.2-1,.7-2.4,2.5-2.7,2.6-.5,0-.6-.9,0-2.2-1.6,1.6-1.3,2.9-.9,3.5-.8,2-.6,4.4.4,6.4.9,1.6,6.6,6.4,7,6.1.5-.3-5.9-5.9-6.3-8.3-1-5.7,6.7-10.7,9.2-11,.1,0,.5.7,1.9.6,1.8,0,2-.6,2-.6,2-.2,11.4,3.3,10.4,10.3-.3,2.2-1.2,4.8-.8,5.1.4.2.8-.9,1.7-2.8,1-2,1.1-4.5.2-6.3"/>
  <path d="M450.6,471.4c-1.2-1.3-11.2-13.4-11.3-13.4,0-.2-.3-.6-.7-.6s-1.5,0-1.5.4c2.1,3.5,6.9,9.1,10.3,11.8,1.5,1.4,2.8,2.2,3.2,1.8"/>
  <path d="M388.7,536.9c.5.7,1.4,2,1.4,2,0,0,1.2-3,3.4-4.2,2.1-1.2,5.8-2.8,7.4-2.9-6.1-1.5-11.9,2.9-12.1,5.2"/>
  <path d="M385.6,487.8c1.1,0,1.5-1.1,1.5-2.3l.2-.2s1.1-1,1.8-3.2c.5,2.9,2,8.7.9,10.2l-1.7,1.7,1.7-1c.7-.2,1.8-1.5,1.4-3.5-.2-1.1-1.9-10.3-1.9-10.3v-.4c-.2-1.2-.5-2.3-1.2-3.2-1.1-1.5-2.9-2.3-4.1-2.4,0,0,4.8,3.2,4.2,6.6-.6,3.2-1.2,3.5-1.2,3.5l-.7-.8v1.9c-.2.9-.5,1.3-1.1,1.3-1.8,0-3.2,2.5-5.1,1.9-1.8-.5-2.8-2.1-4-2.9-1-.8.6-2.4.6-2.4,0,0,0-.6-.5-1-.5-.3-1.3,1.7-1.3,1.7,0,0-1.1,2.8.5,3.8,2.7,1.8,1.8,1.8,4.8,2.7,3,.9,2.7-1.7,5.2-1.6"/>
  <path d="M524.2,516.8c-1.1-2.2-6.8-4.5-9.3-4.8-2.3-.3-2.8-.4-3,1.9-.2,1.9-.3,3.9,0,5.9.6,3.5.9,2.4,4,2.6,2.3.2,4.4.5,6.7.4,2.2-.1,2.7-.2,2.7-2.2,0-1.5.6-3.3-1.2-3.8"/>
  <g>
    <path class="st1" d="M141.2,558.6c0-11.2,0-13.3-.1-15.6-.1-2.5-.7-3.7-3.2-4.2-.6-.1-1.8-.2-2.9-.2s-1.3-.1-1.3-.7.5-.7,1.6-.7c3.9,0,8.6.2,10.6.2s6.9-.2,11.4-.2c9.2,0,21.6,0,29.6,8.4,3.7,3.8,7.2,10,7.2,18.8s-3.9,16.4-8,20.6c-3.4,3.5-11.1,8.7-24.7,8.7s-5.7-.2-8.5-.4c-2.8-.2-5.4-.4-7.2-.4s-2.4,0-4.2,0c-1.7,0-3.6.1-5.1.1s-1.5-.2-1.5-.7.3-.6,1.2-.6,2-.1,2.7-.3c1.5-.3,1.8-1.9,2.1-4.1.4-3.1.4-8.9.4-15.7v-13ZM150.5,566.8c0,7.8,0,13.5.1,14.9,0,1.8.2,4.8.8,5.6,1,1.4,3.8,3,9.7,3s12.6-1.5,17-5.3c4.7-4.1,6.2-10.8,6.2-18.4s-3.9-15.4-7.1-18.5c-6.8-6.5-15.2-7.4-21-7.4s-4.2.2-4.8.5c-.7.3-.9.7-.9,1.5,0,2.5,0,8.9,0,14.8v9.3Z"/>
    <path class="st1" d="M209.6,558.6c0-11.2,0-13.3-.1-15.6-.1-2.5-.9-3.8-2.5-4.1-.8-.2-1.8-.3-2.7-.3s-1.2-.1-1.2-.7.6-.6,1.8-.6c2.8,0,7.5.2,9.6.2s6.2-.2,9-.2,1.6.1,1.6.6-.4.7-1.2.7-1.3,0-2.2.2c-2,.4-2.6,1.6-2.7,4.2-.1,2.4-.1,4.4-.1,15.6v13c0,7.2,0,13,.3,16.2.2,2,.7,3.3,3,3.6,1,.1,2.7.3,3.8.3s1.2.2,1.2.6-.6.7-1.4.7c-4.9,0-9.5-.2-11.5-.2s-6.3.2-9.3.2-1.5-.2-1.5-.7.3-.6,1.2-.6,2-.1,2.7-.3c1.5-.3,1.9-1.6,2.1-3.7.4-3.1.4-8.9.4-16.1v-13Z"/>
    <path class="st1" d="M243,558.6c0-11.2,0-13.3-.1-15.6-.1-2.5-.7-3.7-3.2-4.2-.6-.1-1.8-.2-2.9-.2s-1.3-.1-1.3-.7.5-.7,1.6-.7c3.9,0,8.6.2,10.6.2,3,0,7.3-.2,10.7-.2,9.2,0,12.6,3.1,13.7,4.2,1.6,1.6,3.7,4.9,3.7,8.8,0,10.5-7.7,17.9-18.2,17.9s-1.2,0-1.6,0c-.4,0-.9-.1-.9-.7s.5-.8,2.1-.8c4.1,0,9.9-4.7,9.9-12.2s-.2-7.4-4.4-11.1c-2.7-2.4-5.7-2.9-7.4-2.9s-2.2,0-2.9.3c-.4.1-.6.6-.6,1.4v29.5c0,6.8,0,12.6.4,15.8.2,2.1.7,3.7,2.9,4,1,.1,2.7.3,3.8.3s1.2.2,1.2.6-.6.7-1.4.7c-4.9,0-9.5-.2-11.4-.2s-6.3.2-9.3.2-1.5-.2-1.5-.7.3-.6,1.2-.6,2-.1,2.7-.3c1.5-.3,1.8-1.9,2.1-4.1.4-3.1.4-8.9.4-15.7v-13Z"/>
    <path class="st1" d="M291.3,558.6c0-11.2,0-13.3-.1-15.6-.1-2.5-.9-3.8-2.5-4.1-.8-.2-1.8-.3-2.7-.3s-1.2-.1-1.2-.7.6-.6,1.8-.6c2.8,0,7.5.2,9.6.2s6.2-.2,9-.2,1.6.1,1.6.6-.4.7-1.2.7-1.3,0-2.2.2c-2,.4-2.6,1.6-2.7,4.2-.1,2.4-.1,4.4-.1,15.6v13c0,7.2,0,13,.3,16.2.2,2,.7,3.3,3,3.6,1,.1,2.7.3,3.8.3s1.2.2,1.2.6-.6.7-1.4.7c-4.9,0-9.5-.2-11.5-.2s-6.3.2-9.3.2-1.5-.2-1.5-.7.3-.6,1.2-.6,2-.1,2.7-.3c1.5-.3,1.9-1.6,2.1-3.7.4-3.1.4-8.9.4-16.1v-13Z"/>
  </g>
  <g>
    <path class="st2" d="M141.1,557.2c0-11.2,0-13.3-.1-15.6-.1-2.5-.7-3.7-3.2-4.2-.6-.1-1.8-.2-2.9-.2s-1.3-.1-1.3-.7.5-.7,1.6-.7c3.9,0,8.6.2,10.6.2s6.9-.2,11.4-.2c9.2,0,21.6,0,29.6,8.4,3.7,3.8,7.2,10,7.2,18.8s-3.9,16.4-8,20.6c-3.4,3.5-11.1,8.7-24.7,8.7s-5.7-.2-8.5-.4c-2.8-.2-5.4-.4-7.2-.4s-2.4,0-4.2,0c-1.7,0-3.6.1-5.1.1s-1.5-.2-1.5-.7.3-.6,1.2-.6,2-.1,2.7-.3c1.5-.3,1.8-1.9,2.1-4.1.4-3.1.4-8.9.4-15.7v-13ZM150.3,565.3c0,7.8,0,13.5.1,14.9,0,1.8.2,4.8.8,5.6,1,1.4,3.8,3,9.7,3s12.6-1.5,17-5.3c4.7-4.1,6.2-10.8,6.2-18.4s-3.9-15.4-7.1-18.5c-6.8-6.5-15.2-7.4-21-7.4s-4.2.2-4.8.5c-.7.3-.9.7-.9,1.5,0,2.5,0,8.9,0,14.8v9.3Z"/>
    <path class="st2" d="M209.4,557.2c0-11.2,0-13.3-.1-15.6-.1-2.5-.9-3.8-2.5-4.1-.8-.2-1.8-.3-2.7-.3s-1.2-.1-1.2-.7.6-.6,1.8-.6c2.8,0,7.5.2,9.6.2s6.2-.2,9-.2,1.6.1,1.6.6-.4.7-1.2.7-1.3,0-2.2.2c-2,.4-2.6,1.6-2.7,4.2-.1,2.4-.1,4.4-.1,15.6v13c0,7.2,0,13,.3,16.2.2,2,.7,3.3,3,3.6,1,.1,2.7.3,3.8.3s1.2.2,1.2.6-.6.7-1.4.7c-4.9,0-9.5-.2-11.5-.2s-6.3.2-9.3.2-1.5-.2-1.5-.7.3-.6,1.2-.6,2-.1,2.7-.3c1.5-.3,1.9-1.6,2.1-3.7.4-3.1.4-8.9.4-16.1v-13Z"/>
    <path class="st2" d="M242.8,557.2c0-11.2,0-13.3-.1-15.6-.1-2.5-.7-3.7-3.2-4.2-.6-.1-1.8-.2-2.9-.2s-1.3-.1-1.3-.7.5-.7,1.6-.7c3.9,0,8.6.2,10.6.2,3,0,7.3-.2,10.7-.2,9.2,0,12.6,3.1,13.7,4.2,1.6,1.6,3.7,4.9,3.7,8.8,0,10.5-7.7,17.9-18.2,17.9s-1.2,0-1.6,0c-.4,0-.9-.1-.9-.7s.5-.8,2.1-.8c4.1,0,9.9-4.7,9.9-12.2s-.2-7.4-4.4-11.1c-2.7-2.4-5.7-2.9-7.4-2.9s-2.2,0-2.9.3c-.4.1-.6.6-.6,1.4v29.5c0,6.8,0,12.6.4,15.8.2,2.1.7,3.7,2.9,4,1,.1,2.7.3,3.8.3s1.2.2,1.2.6-.6.7-1.4.7c-4.9,0-9.5-.2-11.4-.2s-6.3.2-9.3.2-1.5-.2-1.5-.7.3-.6,1.2-.6,2-.1,2.7-.3c1.5-.3,1.8-1.9,2.1-4.1.4-3.1.4-8.9.4-15.7v-13Z"/>
    <path class="st2" d="M291.1,557.2c0-11.2,0-13.3-.1-15.6-.1-2.5-.9-3.8-2.5-4.1-.8-.2-1.8-.3-2.7-.3s-1.2-.1-1.2-.7.6-.6,1.8-.6c2.8,0,7.5.2,9.6.2s6.2-.2,9-.2,1.6.1,1.6.6-.4.7-1.2.7-1.3,0-2.2.2c-2,.4-2.6,1.6-2.7,4.2-.1,2.4-.1,4.4-.1,15.6v13c0,7.2,0,13,.3,16.2.2,2,.7,3.3,3,3.6,1,.1,2.7.3,3.8.3s1.2.2,1.2.6-.6.7-1.4.7c-4.9,0-9.5-.2-11.5-.2s-6.3.2-9.3.2-1.5-.2-1.5-.7.3-.6,1.2-.6,2-.1,2.7-.3c1.5-.3,1.9-1.6,2.1-3.7.4-3.1.4-8.9.4-16.1v-13Z"/>
  </g>
  <g>
    <g>
      <path class="st1" d="M243.4,838.1c-.4,0-.8-.4-.8-.8s.6-1,1.2-1.5c8.2-7.2,19.9-16.4,19.9-28.8s-5.1-11.2-8-11.2-4.5.5-6.2,2.1c-1.4,1.4-2.5,4.1-2.5,5.6s-.2,1.1-.8,1.1-.5-.4-.5-1.1c0-.5-.4-5.4-.4-7.1s0-.8.7-1.2c2.3-1.2,5.5-2.2,10.6-2.2,10.3,0,14.7,5.6,14.7,12.5,0,11.4-12.6,21.3-20.2,27.4-.3.2-.2.4.1.4h4c1,0,7.9,0,10.1-.4,4.1-.5,6-2.5,6.7-5.2.2-.7.4-.9.7-.9s.5.5.5,1.1c0,.9-1.1,6.4-1.7,8.4-.5,1.6-1.4,1.8-5.1,1.8h-23Z"/>
      <path class="st1" d="M292.7,839.1c-11.6,0-14.7-13.4-14.7-21.7,0-13.7,4.8-24.3,15.7-24.3s14.7,12.3,14.7,21.7c0,14.6-5.6,24.4-15.7,24.4ZM292.4,795.7c-4.4,0-7.6,6.1-7.6,19.4s2.5,21.3,9,21.3,7.7-8,7.7-19.4-2.7-21.3-9.1-21.3Z"/>
      <path class="st1" d="M313.9,838.1c-.4,0-.8-.4-.8-.8s.6-1,1.2-1.5c8.2-7.2,19.9-16.4,19.9-28.8s-5.1-11.2-8-11.2-4.5.5-6.2,2.1c-1.4,1.4-2.5,4.1-2.5,5.6s-.2,1.1-.8,1.1-.5-.4-.5-1.1c0-.5-.4-5.4-.4-7.1s0-.8.7-1.2c2.3-1.2,5.5-2.2,10.6-2.2,10.3,0,14.7,5.6,14.7,12.5,0,11.4-12.6,21.3-20.2,27.4-.3.2-.2.4.1.4h4c1,0,7.9,0,10.1-.4,4.1-.5,6-2.5,6.7-5.2.2-.7.4-.9.7-.9s.5.5.5,1.1c0,.9-1.1,6.4-1.7,8.4-.5,1.6-1.4,1.8-5.1,1.8h-23Z"/>
      <path class="st1" d="M351.8,838.1c-1-.5-1.1-1.1-1.1-2.3,0-1.9,0-5.5.2-7.4.1-.6.3-1.1.6-1.1s.5.4.5,1c0,6.3,3.9,7.9,8,7.9s9.7-3.1,9.7-10.8-10.2-13.3-14.9-13.9c-.7-.1-1.1-.4-1.1-1.2l1.4-15.5c0-.6.5-.8,1.1-.8h14.4c1.6,0,2.6-.1,3.3-.2.6,0,1-.2,1.2-.2.5,0,.6.2.6,1.1s-.2,3.8-.8,7.5c0,.4-.2.7-.6.7s-.5-.4-.5-.8c0-1.6-.4-3.2-5.2-3.2h-10.7l-.8,7.2c8.8,1.4,19.4,6.2,19.4,16.4s-5.7,16.5-19.3,16.5-4.1-.4-5.5-1.1Z"/>
      <path class="st1" d="M388.8,810.7c-.5-.3-.9-.4-.9-.7,0-.5.3-.6,1.2-.6s6.1.9,8.1,1.3c1.5.4,2,.6,2.2.8.2.2.2.5.2.7,0,.4-.3,1.1-.5,1.4-1.9,2.9-4.6,5.3-7.4,7.8-.5.4-1,.9-1.3.9s-.4-.1-.4-.4.2-.9.4-1.3c.6-1.8.8-3,.8-5.3s-1.5-4.2-2.3-4.6Z"/>
      <path class="st1" d="M409.6,838.1c-.4,0-.8-.4-.8-.8s.6-1,1.2-1.5c8.2-7.2,19.9-16.4,19.9-28.8s-5.1-11.2-8-11.2-4.5.5-6.2,2.1c-1.4,1.4-2.5,4.1-2.5,5.6s-.2,1.1-.8,1.1-.5-.4-.5-1.1c0-.5-.4-5.4-.4-7.1s0-.8.7-1.2c2.3-1.2,5.5-2.2,10.6-2.2,10.3,0,14.7,5.6,14.7,12.5,0,11.4-12.6,21.3-20.2,27.4-.3.2-.2.4.1.4h4c1,0,7.9,0,10.1-.4,4.1-.5,6-2.5,6.7-5.2.2-.7.4-.9.7-.9s.5.5.5,1.1c0,.9-1.1,6.4-1.7,8.4-.5,1.6-1.4,1.8-5.1,1.8h-23Z"/>
      <path class="st1" d="M458.8,839.1c-11.6,0-14.7-13.4-14.7-21.7,0-13.7,4.8-24.3,15.7-24.3s14.7,12.3,14.7,21.7c0,14.6-5.6,24.4-15.7,24.4ZM458.6,795.7c-4.4,0-7.6,6.1-7.6,19.4s2.5,21.3,9,21.3,7.7-8,7.7-19.4-2.7-21.3-9.1-21.3Z"/>
      <path class="st1" d="M481.4,837.7c-.9-.5-1-.9-1-1.6,0-2.8.2-6.1.4-7.3.1-.7.3-1.1.6-1.1s.5.4.5.8c0,3.8,2.9,7.8,8.8,7.8s10.6-3.1,10.6-10-7-10.6-9.9-11.2c-1.5-.3-1.9-.5-1.9-1s.4-.7,1.1-.8c2.6-.5,9.1-3.2,9.1-10.1s-1.8-7.2-7.8-7.2-8.2,2.8-8.2,6.2-.2.9-.5.9-.4-.2-.5-.8c-.2-1.9-.4-4.5-.4-5.9s0-.8.8-1.1c2-.9,5.5-2.1,10.4-2.1,11.3,0,13.3,5.9,13.3,8.7,0,5.8-6.2,9.8-8.6,10.6h0c4.3,1.1,10.5,4.6,10.5,11.7s-7.1,15.1-18.6,15.1-7.5-.6-8.9-1.4Z"/>
      <path class="st1" d="M529.3,839.1c-11.6,0-14.7-13.4-14.7-21.7,0-13.7,4.8-24.3,15.7-24.3s14.7,12.3,14.7,21.7c0,14.6-5.6,24.4-15.7,24.4ZM529.1,795.7c-4.4,0-7.6,6.1-7.6,19.4s2.5,21.3,9,21.3,7.7-8,7.7-19.4-2.7-21.3-9.1-21.3Z"/>
    </g>
    <g>
      <path class="st3" d="M243.3,836.7c-.4,0-.8-.4-.8-.8s.6-1,1.2-1.5c8.2-7.2,19.9-16.4,19.9-28.8s-5.1-11.2-8-11.2-4.5.5-6.2,2.1c-1.4,1.4-2.5,4.1-2.5,5.6s-.2,1.1-.8,1.1-.5-.4-.5-1.1c0-.5-.4-5.4-.4-7.1s0-.8.7-1.2c2.3-1.2,5.5-2.2,10.6-2.2,10.3,0,14.7,5.6,14.7,12.5,0,11.4-12.6,21.3-20.2,27.4-.3.2-.2.4.1.4h4c1,0,7.9,0,10.1-.4,4.1-.5,6-2.5,6.7-5.2.2-.7.4-.9.7-.9s.5.5.5,1.1c0,.9-1.1,6.4-1.7,8.4-.5,1.6-1.4,1.8-5.1,1.8h-23Z"/>
      <path class="st3" d="M292.5,837.7c-11.6,0-14.7-13.4-14.7-21.7,0-13.7,4.8-24.3,15.7-24.3s14.7,12.3,14.7,21.7c0,14.6-5.6,24.4-15.7,24.4ZM292.3,794.3c-4.4,0-7.6,6.1-7.6,19.4s2.5,21.3,9,21.3,7.7-8,7.7-19.4-2.7-21.3-9.1-21.3Z"/>
      <path class="st3" d="M313.8,836.7c-.4,0-.8-.4-.8-.8s.6-1,1.2-1.5c8.2-7.2,19.9-16.4,19.9-28.8s-5.1-11.2-8-11.2-4.5.5-6.2,2.1c-1.4,1.4-2.5,4.1-2.5,5.6s-.2,1.1-.8,1.1-.5-.4-.5-1.1c0-.5-.4-5.4-.4-7.1s0-.8.7-1.2c2.3-1.2,5.5-2.2,10.6-2.2,10.3,0,14.7,5.6,14.7,12.5,0,11.4-12.6,21.3-20.2,27.4-.3.2-.2.4.1.4h4c1,0,7.9,0,10.1-.4,4.1-.5,6-2.5,6.7-5.2.2-.7.4-.9.7-.9s.5.5.5,1.1c0,.9-1.1,6.4-1.7,8.4-.5,1.6-1.4,1.8-5.1,1.8h-23Z"/>
      <path class="st3" d="M351.7,836.6c-1-.5-1.1-1.1-1.1-2.3,0-1.9,0-5.5.2-7.4.1-.6.3-1.1.6-1.1s.5.4.5,1c0,6.3,3.9,7.9,8,7.9s9.7-3.1,9.7-10.8-10.2-13.3-14.9-13.9c-.7-.1-1.1-.4-1.1-1.2l1.4-15.5c0-.6.5-.8,1.1-.8h14.4c1.6,0,2.6-.1,3.3-.2.6,0,1-.2,1.2-.2.5,0,.6.2.6,1.1s-.2,3.8-.8,7.5c0,.4-.2.7-.6.7s-.5-.4-.5-.8c0-1.6-.4-3.2-5.2-3.2h-10.7l-.8,7.2c8.8,1.4,19.4,6.2,19.4,16.4s-5.7,16.5-19.3,16.5-4.1-.4-5.5-1.1Z"/>
      <path class="st3" d="M388.6,809.3c-.5-.3-.9-.4-.9-.7,0-.5.3-.6,1.2-.6s6.1.9,8.1,1.3c1.5.4,2,.6,2.2.8.2.2.2.5.2.7,0,.4-.3,1.1-.5,1.4-1.9,2.9-4.6,5.3-7.4,7.8-.5.4-1,.9-1.3.9s-.4-.1-.4-.4.2-.9.4-1.3c.6-1.8.8-3,.8-5.3s-1.5-4.2-2.3-4.6Z"/>
      <path class="st3" d="M409.4,836.7c-.4,0-.8-.4-.8-.8s.6-1,1.2-1.5c8.2-7.2,19.9-16.4,19.9-28.8s-5.1-11.2-8-11.2-4.5.5-6.2,2.1c-1.4,1.4-2.5,4.1-2.5,5.6s-.2,1.1-.8,1.1-.5-.4-.5-1.1c0-.5-.4-5.4-.4-7.1s0-.8.7-1.2c2.3-1.2,5.5-2.2,10.6-2.2,10.3,0,14.7,5.6,14.7,12.5,0,11.4-12.6,21.3-20.2,27.4-.3.2-.2.4.1.4h4c1,0,7.9,0,10.1-.4,4.1-.5,6-2.5,6.7-5.2.2-.7.4-.9.7-.9s.5.5.5,1.1c0,.9-1.1,6.4-1.7,8.4-.5,1.6-1.4,1.8-5.1,1.8h-23Z"/>
      <path class="st3" d="M458.7,837.7c-11.6,0-14.7-13.4-14.7-21.7,0-13.7,4.8-24.3,15.7-24.3s14.7,12.3,14.7,21.7c0,14.6-5.6,24.4-15.7,24.4ZM458.4,794.3c-4.4,0-7.6,6.1-7.6,19.4s2.5,21.3,9,21.3,7.7-8,7.7-19.4-2.7-21.3-9.1-21.3Z"/>
      <path class="st3" d="M481.2,836.3c-.9-.5-1-.9-1-1.6,0-2.8.2-6.1.4-7.3.1-.7.3-1.1.6-1.1s.5.4.5.8c0,3.8,2.9,7.8,8.8,7.8s10.6-3.1,10.6-10-7-10.6-9.9-11.2c-1.5-.3-1.9-.5-1.9-1s.4-.7,1.1-.8c2.6-.5,9.1-3.2,9.1-10.1s-1.8-7.2-7.8-7.2-8.2,2.8-8.2,6.2-.2.9-.5.9-.4-.2-.5-.8c-.2-1.9-.4-4.5-.4-5.9s0-.8.8-1.1c2-.9,5.5-2.1,10.4-2.1,11.3,0,13.3,5.9,13.3,8.7,0,5.8-6.2,9.8-8.6,10.6h0c4.3,1.1,10.5,4.6,10.5,11.7s-7.1,15.1-18.6,15.1-7.5-.6-8.9-1.4Z"/>
      <path class="st3" d="M529.2,837.7c-11.6,0-14.7-13.4-14.7-21.7,0-13.7,4.8-24.3,15.7-24.3s14.7,12.3,14.7,21.7c0,14.6-5.6,24.4-15.7,24.4ZM528.9,794.3c-4.4,0-7.6,6.1-7.6,19.4s2.5,21.3,9,21.3,7.7-8,7.7-19.4-2.7-21.3-9.1-21.3Z"/>
    </g>
  </g>
</svg>