<?xml version="1.0" encoding="UTF-8"?>
<svg id="Layer_1" xmlns="http://www.w3.org/2000/svg" version="1.1" viewBox="0 0 1017.9 868.3">
  <!-- Generator: Adobe Illustrator 30.1.0, SVG Export Plug-In . SVG Version: 2.1.1 Build 136)  -->
  <defs>
    <style>
      .st0 {
        fill: #207770;
      }
    </style>
  </defs>
  <path class="st0" d="M503.3,81.3c-8.6-4.6-14.9-13.8-17.3-18.4l-6.3-12,34,25.6,1.7-.9-3.7-40.8,17.4,32.9,7.6-4-21.2-39.2-6.7,3.5,3.2,36.8-30-22.7-7.3,3.8,20.8,39.4,7.8-4.1Z"/>
  <path class="st0" d="M587.9,48.6l-2.5-9.6c-2.3,6.9-2.8,8.7-9.8,10.5l-7.8,2c-.7-.5-1.1-1.5-1.3-2.4l-4.3-16.6,4.9-1.3c2.9-.8,7.9,3.1,7.9,3.1h.3c0,0-2.5-9.8-2.5-9.8h-.5c-1,2.6-3.7,4.4-5.6,4.9l-4.9,1.3-4-15.3c-.2-.9-.6-1.9,0-2.7l7.1-1.9c6.6-1.8,9.7-.5,14.3,3.6l-2.3-9-28.4,7.4,11.3,43.1,28.4-7.4Z"/>
  <path class="st0" d="M621.3,44.6c14.5-.6,26.4-7.1,25.7-23.3-.7-16-13.3-21.8-27.7-21.2l-11.6.5,1.9,44.5,11.6-.5ZM616.8,2.4h2.7c11.7-.6,17.2,8.7,17.7,19.3.5,10.7-4.1,20.2-15.9,20.7h-2.6c-.5-.6-.6-1.7-.6-2.5l-1.5-34.9c0-.8,0-1.9.3-2.6Z"/>
  <rect class="st0" x="655.2" y="20.1" width="44.6" height="8.5" transform="translate(563.2 692.6) rotate(-82.4)"/>
  <path class="st0" d="M722.7,58.1c9.6,3.1,18.5-1,23.9-9.2l-.9-.8c-4.6,5.6-10.8,7.4-17.7,5.2-10.6-3.4-12.8-15.2-9.7-24.8,3.6-11.2,11-14.3,17.1-12.3.1,0,.3,0,.4.1,7.2,2.6,8,10.5,5.3,15.4l10,3.2c2.6-12.2-7.3-18.2-14.6-20.5-10.9-3.5-23.6-.9-28.7,14.6-4,12.3,2.3,25,14.7,29Z"/>
  <rect class="st0" x="752.8" y="51.5" width="44.6" height="8.5" transform="translate(360.5 713.1) rotate(-61.9)"/>
  <path class="st0" d="M808.8,69.5l5.6-7,3.2,49.5,2.3,1.8,27.8-34.8-6.9-5.5c1.1,5.1-5.6,17.5-8.6,21.3l-6.8,8.5-1.7-43.4-6-4.8-27.8,34.8,6.9,5.5c1.2-6.9,5.6-17.7,12.1-25.9Z"/>
  <path class="st0" d="M838,133.1c-.3-1.9,1.3-6.9,8.4-9.5l5.4-2,9.5,11.7-9.2,17.2,6.3,7.8,22.7-42.8-4.4-5.4-44.8,15.6,6.1,7.6ZM871.3,114.3l-9,17-8.5-10.4,17.5-6.5Z"/>
  <path class="st0" d="M907.5,224.3l27.1-10.4-4.1-10.7c-5.6,9-14,15.1-23.4,18.7-7,2.7-13.9.7-16.7-6.6-3-7.7,2.9-12.9,9.5-15.4l25.5-9.8-3-7.9-27.1,10.4c-9.6,3.7-12.1,13.7-8.6,22.7,3.6,9.3,11.6,12.6,20.8,9Z"/>
  <path class="st0" d="M900.4,261.6c5.6-4.2,16.2-9.1,26.5-10.5l8.8-1.2-31.6,38.2.4,2.9,44.1-6.2-1.2-8.7c-2.7,4.5-16.1,8.9-20.9,9.6l-10.8,1.5,28.6-32.7-1.1-7.6-44.1,6.2,1.2,8.7Z"/>
  <rect class="st0" x="922.3" y="298.6" width="8.5" height="44.6" transform="translate(566.7 1233) rotate(-87.6)"/>
  <path class="st0" d="M942.7,373.9c1.6-7.3,1.6-18.2-7.6-20.2-15.1-3.2-20.4,23.3-31.1,21-4.7-1-5-6.8-4.2-10.6,1.4-6.4,7.5-7.9,13.9-6.6l2-9.3c-10.5-1.9-15.8,6.4-17.7,15.4-2.1,9.8,1.1,19.7,7.3,21,13.3,2.8,20.3-23.5,29.8-21.5,5,1.1,6.8,5.3,5.8,10.1-1.4,6.5-7.1,6.9-12.4,5.9l-2,9.3c10,1.5,14.4-6.4,16.1-14.7Z"/>
  <path class="st0" d="M900.6,416.6l24.9,11.1,3.5-7.7-26.5-11.8c-9.4-4.2-18.2,1.1-22.2,9.9-4.1,9.1-.8,17.1,8.3,21.2l26.5,11.8,4.7-10.5c-10.3,2.3-20.6.7-29.8-3.4-6.8-3-10.3-9.3-7.1-16.5,3.4-7.5,11.2-7,17.7-4.1Z"/>
  <path class="st0" d="M858.3,462.1c1-.2,1.9.5,2.7,1.1l32.2,23.2,4.9-6.9-36.2-26-16.5,22.9,8.8,6.3c-3.2-5.9-3.1-10.7,1.2-16.6l2.9-4Z"/>
  <path class="st0" d="M1017.7,741.1c-.3-.6-1-.9-1.7-.7l-6.3,2.1c-67.8,22.3-105.7-15.1-118.8-32.3-1.2-1.6-2.6-3.5-4.1-5.8-3.4-4.9-8-11.5-14-18.1.2-3.4.3-6.9.3-10.3,0-26.7-5.4-51-16.1-73-10.7-22-25.4-41-44-56.9-18.6-16-40.2-28.4-64.8-37.3-24.6-8.9-51-13.4-79.3-13.4s-56.5,5.2-81.7,15.7c-25.1,10.5-47.1,24.9-66,43.2v-23.9c.3-.8.6-1.7.9-2.5l.8-2.4c1.1-3,2.1-6,3.2-8.9.8-2.2,1.5-4.3,2.3-6.5l2-5.6c.4-1.2.8-2.4,1.3-3.5,11.1-30.5,37.9-58.2,70-72.2,0,0,0,0,0,0,15.4-.4,31.8,1.5,49,5.7,22.5,5.5,44,11.7,64.4,18.5,14.7,4.7,28.5,9.2,41.6,13.4,13.1,4.2,25.1,6.7,36.1,7.5,11,.8,20.3-.7,27.9-4.3,7.6-3.7,13.2-10.5,16.9-20.4,4.7-13.1,3.4-27-3.9-41.6-5.8-9.9-13.9-19.4-24.3-28.3-10.5-8.9-22.4-16.7-35.7-23.6-13.4-6.8-27.9-12-43.6-15.7-15.7-3.7-31.4-5.5-47.1-5.5-31.9,0-61.4,5-88.3,14.9-27,10-50.1,23.6-69.5,40.8-4.9,4.3-9.5,8.9-13.8,13.7-10-10.6-21.1-20.3-33.3-29.1-17.1-12.3-35.1-22.1-54.1-29.4l129.2-205.6H251.1c-9.5,0-17.8,3.5-24.8,10.5-7,7-10.5,15.5-10.5,25.6v44.5h.8c2.2-3.9,5-7.3,8.4-10.1,2.8-2.8,6.4-5.3,10.9-7.5,4.5-2.2,10.3-3.4,17.6-3.4h250l-120,191.3c1.7,0,3.5.3,5.5.8,2,.6,3.8,1.1,5.5,1.7,16.8,5,32.3,12.5,46.6,22.2,13.7,9.4,25.3,20.1,34.8,32-4.8,10.9-8.7,22-12.6,33.3-5.8,16.9-11.9,34.4-21.9,52.6-.1.3-.3.5-.4.8-.1.2-.3.5-.4.7-3.2,5.7-6.3,10.8-9.6,15.6-17.2,25.1-41.4,35.8-68.2,30.3-40.7-8.5-76.1-50.7-86.2-102.6-5.6-41.8-20.6-76-44.8-101.6-.3-.3-.5-.6-.8-.8l-.4-.4c-22.5-23.3-48.4-35.2-65.5-43.1-42.8-19.6-92.8,8.3-96.4,13.1-1.3,1.8-2.4,4.1-3.2,6.6,0,.2-.1.4-.2.6,0,0,0,0,0,0-1.6-.9-3.3-1.8-5.3-2.4-3.5-1.1-7.4-1.7-11.5-1.6-1.3,0-2.6,0-3.9.2h-.9c-1.4.2-2.8.4-4.2.4-10.5.3-20.6-5.2-27.3-9.4-4.1-2.6-7.3-4.8-10-7.1-.4-.4-1-.4-1.5-.2-.5.2-.8.8-.8,1.3,0,.4.2.7.5,1,0,0,.2.1.3.3,5.8,5.4,16.7,14.4,28.7,17.6-5,2.6-9.2,6.3-12,10.8h0c-.3.5-.4,1-.2,1.4.1.4.5.8,1,.9.6.2,1.3-.1,1.6-.7,0,0,0,0,0,0,.9-.9,5.8-4.8,6.4-5.2,4.2-2.8,8.7-4.7,13.2-5.7,9.1-2,17.8-1.2,23.7,2.4.7.4,1.2.8,1.7,1.2,0,3.4.7,6.3,2.2,8.5,3.6,5.3,28.7,24.3,53,42.6,9.6,7.2,23.7,9.9,42.1,7.8,13.1-1.5,24.6-5,28-6.2,2.8,2,5.4,4.2,8.4,6.9l.5.4c.2.2.5.4.7.7,25.3,23.5,32,54.4,39.9,90.2,1.2,5.3,2.3,10.6,3.6,16l.6,2.5c3.6,15.3,6.9,27.3,10.9,38.9,1.3,3.8,2.8,7.5,4.5,11.2-7.4-2.4-14.5-4.7-21.5-6.9-14-4.5-26.8-7.1-38.6-8-11.7-.8-21.8.6-30.2,4.2-8.4,3.6-14.6,10.8-18.5,21.4-5,14.6-3.4,29.4,5,44.5,5.6,11.2,14.1,21.5,25.6,31,11.5,9.5,24.3,17.8,38.6,24.7,14.3,7,29.6,12.5,46.1,16.4,16.5,3.9,33.1,5.9,49.9,5.9,34.1,0,66.3-3.9,96.5-11.7,18.8-4.9,36-11.1,51.7-18.8.5,25.3,5.8,49.1,16.1,71.3,10.7,23.3,25.4,43.6,44,60.9,18.6,17.3,40.3,31,65.2,41.2,24.9,10.2,51.4,15.3,79.7,15.3s54.7-5.1,79.3-15.3c24.6-10.2,46.2-24,64.8-41.2,18.6-17.3,33.2-37.6,44-60.9,5.4-11.7,9.5-23.9,12.1-36.5,33.1,36.6,65.6,46.6,91.2,46.6,30.4,0,51.1-14,51.5-14.3l5.4-3.8c.6-.4.7-1.1.4-1.8ZM554.3,554.2c-2.3,6.9-2.8,13.8-1.3,20.4-.7.2-1.3.7-1.8,1.3-1.4,1.9-.7,4,.7,5.1,1,.8,2.3,1,3.4.7,3.6,8.2,9.5,14.1,13.6,17.5-12.3,1.3-23,4.3-32,8.9-1.1-.9-3.4-3-5.9-5.9,5-18.3,12.5-34.2,22.5-47.7.3,0,.5-.2.8-.2ZM671.5,574.8c-.1.1-.2.2-.3.3-.8,1.1-1,2.4-.5,3.6.5,1.3,1.8,2.2,3.2,2.4.9.1,1.7,0,2.4-.6,9.4,10.4,20.9,18.4,27.3,22.4-12.8,4.6-26.5,7.3-40.7,8.1-8.2-5.3-43.1-30.2-26.2-62.8,8.5-.1,16.6-1.2,24.1-3.1-.3,9.7,3.3,19.7,10.8,29.6ZM709.6,562.6c.5,1.3,1.8,2.2,3.2,2.4,1.3.2,2.5-.4,3.3-1.4,0,0,.1-.2.2-.2,14.3,6.1,29.4,7.4,37.6,7.5-12.7,13-27.7,23-44.6,29.9-9-5.4-46-29.1-43.6-57,7.3-2.3,14.2-5.5,20.3-9.5,4.5,10.9,12.5,19.6,23.7,25.9-.3.8-.3,1.7,0,2.6ZM627.9,572.4c-.8.2-1.4.7-2,1.4-1.2,1.6-1,3.6.5,5,.9.7,2.1,1.2,3.3.9,4.3,12.3,13.5,22,21.3,28.5-7.2-2-22.8-6-41.2-8.2l-1.5-1.2c-.3-.3-29.3-25.6-14.2-51.3,9.9-.5,20.3-.4,30.9.4,2.1.2,4.2.3,6.4.3-3.7,8-4.9,16.1-3.6,24.1ZM532.5,610.4c-1.5.9-2.9,1.9-4.3,2.9.4-2,.9-3.9,1.3-5.8,1.1,1.2,2.2,2.2,2.9,2.9ZM585.3,567.7c-.7.2-1.3.7-1.8,1.3-1.1,1.5-1,3.4.3,4.7.9.9,2,1.3,3.1,1.2,3.5,10.9,10.8,19.7,15,24.2-5.8-.5-11.4-.7-16.8-.7s-6.2,0-9.2.3c-.3-.2-7.4-4.6-12.9-12.6-7.1-10.4-8.2-21.6-3.2-33.4,9-2.3,18.6-3.9,28.8-4.8-3.1,6.3-4.1,12.9-3.3,19.9ZM522,675.9c0-19.9,1.6-38.4,4.7-55.4,27.8-25.5,82.2-17.4,110.2-11-9.8-.8-18.8-.6-26.8.8h-.2c0-.1-.1-.1-.2-.2-.3,0-26.9-7.3-49.1,11.6-20.7,17.7-25.4,49.1-10.9,73.2,25.1,41.6,83,44.6,125,34.5,18.9-4.5,39.9-12.6,60.4-20.5,27.6-10.6,55.9-21.5,79.8-24-.2,6.2-.5,12.3-.9,18.2-14.9,4.2-30.4,11.1-46.3,18.3-18.9,8.6-38.5,17.4-58.4,22.1l-7,1.7c-49.9,11.9-117.6,27.9-177.3-25.7-1.8-13.9-2.8-28.5-2.8-43.6ZM815,675.9c0,1.4,0,2.8,0,4.2-24.7,2.5-53.4,13.5-81.5,24.3-20.2,7.8-41.1,15.8-59.8,20.3-43.6,10.5-97.6,4.5-119.9-32.4-13.3-22.1-9.1-51,9.9-67.2,11.9-10.1,25.2-12.1,34.1-11.9-8.3,2.9-15,7.4-20,13.1-2,2.3-3.7,4.8-5.3,7.6,0,0,0,.1,0,.2-6.9,12.9-6.2,27.7-3.1,37.3,4.7,14.9,26.5,45.3,75.6,45.3,12.7,0,27.3-2.1,43.9-7,18.4-5.4,35.6-11.8,52.2-17.9,26.6-9.8,51.1-18.8,73.9-21.3,0,1.8,0,3.5,0,5.3ZM892.7,721.3c-7-8.1-14.1-15.2-21.1-21.4.3-2.3.5-4.7.7-7,4.4,5.3,7.9,10.3,10.6,14.2,1.5,2.2,3,4.3,4.2,6,7.6,9.9,21.5,24.4,42.6,33.3-14.5-4.8-26.9-13.2-37.2-25ZM145.5,345.7c4.2-.3,8.5.2,12.2,1.5,4.2,1.6,7.7,3.7,10.3,6.5l1.1,1c.2.2.4.5.6.7.1.2.3.3.4.5l.8.9c-3.2-1.2-6.4-2.3-9.6-3.2-.5-1.6-1.8-3-3.5-3.5-1.8-.6-3.6,0-4.9,1.4-6.3-1.4-12.7-2.4-19.1-2.8,3.6-1.5,7.6-2.5,11.7-2.8ZM97.2,337.1c-2.6,2.1-4.7,4.2-6.5,6.5-.9,1.1-1.8,2.3-2.7,3.9-.4.7-.8,1.4-1.1,2.1,0,.1-.1.2-.2.3-1,.1-2.1.3-3.1.4.3-.6.6-1.2.9-1.7,1-1.7,2.1-3.4,3.3-4.8,1-1.3,2.4-2.9,4-4.4,1.1-1,2.2-1.9,3.2-2.7,1.7-.6,3.3-1.1,5-1.7-.9.7-1.9,1.3-2.8,2.1ZM104.2,382.3h0c-.2-.1-.4-.2-.6-.4-.9-.6-1.8-1.2-2.6-1.7-.5-.4-1-.7-1.5-1.1-.9-.6-1.7-1.2-2.5-2-2.2-1.8-4.5-4.1-6.8-6.9-2.1-2.7-3.9-5.4-5.2-8.1-1.2-2.4-2.1-4.8-2.6-7,1.2-.2,2.5-.4,3.8-.5.2.7.5,1.4.8,2.1,0,0,0,.2,0,.2.7,1.5,1.6,2.9,2.5,4.1,1.7,2.3,3.8,4.6,6.3,6.8,2.1,1.9,4.5,3.8,7.1,5.6,2.3,1.6,4.7,3.1,7.5,4.9-4,1.5-6.2,3.6-6.4,3.8ZM207.7,376.1c0,.5-.2,1.1-.3,1.7-3.5-2.8-7.1-5.5-10.8-7.9.3-1.5.4-3.1.4-4.9,0-2,0-4.1-.3-6-.2-2-.6-4-1.2-6,3.7,2.3,7.3,4.7,10.7,7.1,1.1,3.5,1.7,7,1.7,10.5,0,1.7,0,3.6-.3,5.4ZM458.2,588.4c1.8-2.4,3.6-5,5.3-7.6v10.3c-.7.5-1.4,1.1-2.1,1.6-4.7,3.3-9.6,6.2-14.6,8.6,4-3.8,7.9-8.1,11.5-12.9ZM521.3,515.7c0-3.9.1-7.6.3-11.1.9.4,1.9,1.1,3.1,2.2l-.9,2.4c-.7,1.9-1.4,3.8-2.1,5.8-.2.4-.3.9-.5,1.3v-.6ZM524,497.3c-.1,0-.3,0-.4,0-.5,0-.9.1-1.3.3,1.1-10.2,3.2-19,6.2-26.6,2.9.6,6.6,2,10.6,5.2-4.9,7.6-8.8,15.4-11.7,23.3h0c0,.1-.1.3-.2.4,0,0,0,0,0-.1-.5-1.3-1.8-2.2-3.2-2.4ZM192.5,364.7c-.1.8-.2,1.6-.4,2.4-4.1-2.5-8.3-4.7-12.6-6.7-.3-.5-.6-.9-1-1.4-.8-1.2-1.7-2.5-2.7-3.7l-2.6-2.9c-.3-.3-.5-.6-.9-.9l-1.2-1c-3.2-3-7.3-5.3-12.2-6.9-4.3-1.3-9.1-1.7-13.8-1.1-4.7.6-9.1,1.9-13,3.9-.7.3-1,1.1-.6,1.8,0,.1.1.2.2.3-1.6,0-3.2-.2-4.7-.2-12.6-.3-24.2,0-34.5,1,.6-1.1,1.2-2,1.8-2.9,1.5-2.1,3.3-4.2,5.5-6.3,2.2-2,4.4-3.7,6.8-5.2.7-.5,1.5-.9,2.3-1.4.5-.3.9-.5,1.3-.7l1.4-.7c19.5-4,36.9-2.6,51.7,4.2,7.5,3.5,17.8,8.2,28.4,14.4.8,2.9,1.2,5.8,1.2,8.6,0,1.7,0,3.6-.3,5.4ZM72.5,347.9c.7-.9,5.2-4,12.9-7.4-.2.2-.4.4-.6.6-1.4,1.5-2.8,3.1-4.2,5-1,1.4-2.1,3.1-3.1,5.1-3.1.6-5.5,1.1-7.3,1.6.5-1.9,1.4-3.6,2.3-4.9ZM77.5,356.1c.8,2.6,1.9,5.3,3.6,8.3,1.6,2.9,3.7,5.7,6.2,8.5,2.7,2.8,5.2,5.1,7.7,6.9.9.7,1.9,1.4,2.8,2,.5.3,1,.6,1.5,1,.9.6,1.9,1.1,2.9,1.7.5.3,1,.5,1.5.8l.8.6c.5.4,12.8,9.6,20.9,13.5,1.3.6,2.7.9,4.2.9,2.6,0,5.4-.9,7.8-2.7,1.1-.8,2-1.7,2.7-2.7,1.6-2.1,2.2-4.4,1.9-6.7-.4-2.7-2.3-6.4-9.5-9-8.6-3.1-15.3-2.7-20-1.4.2-.6,0-1.2-.5-1.6-2.7-1.9-4.9-3.5-7-5.3-2.4-2-4.5-3.9-6.4-5.8-2.1-2.2-3.9-4.4-5.3-6.6-.7-1.1-1.3-2.3-1.9-3.5-.1-.3-.2-.6-.3-.9,10.6-1.1,22.5-1.5,35.6-1.2,8.4.2,16.8,1.2,25,3,.5,1.6,1.8,2.9,3.5,3.4,1.8.5,3.5,0,4.7-1.3,4.1,1.2,8.2,2.7,12.3,4.3-1.9,1-4,1.8-6.3,2.3-3.4.7-7.3.8-11.6,0-4-.5-7.9-1.9-11.4-3.3-.7-.3-1.3-.6-2-.9-1.2-.6-2.4-1.1-3.5-1.7l-5.4-3.1c-.7-.4-1.5-.1-1.9.5-.4.6-.2,1.5.4,1.9l5.3,3.4c1.2.7,2.4,1.3,3.6,1.9.6.3,1.3.7,2,1.1,3.8,1.6,7.8,3.3,12.1,4.1,4.7,1,9.1,1.1,13.1.5,4.3-.8,7.9-2.2,10.9-4.3,4.3,2,8.6,4.3,12.7,6.8-1.7,3.3-3.8,6.3-6.3,9-3.2,3.5-6.9,6.2-10.9,8.1-.7.4-1.4.7-2.2,1-.3.1-.5.2-.8.3l-.6.2c-.9.3-1.7.7-2.6.8l-3.4.8-5.1.6c-.4,0-.7,0-1.1,0h-4.2c-1.5,0-3-.3-4.5-.5-.9-.1-1.7-.2-2.6-.3-.8,0-1.4.5-1.5,1.2,0,.7.4,1.4,1.2,1.5.8.1,1.7.3,2.5.4,1.5.3,3.1.5,4.8.7l4.2.2c.4,0,.8,0,1.4,0l5.4-.4c0,0,.1,0,.2,0l3.5-.7c1.1-.2,2.1-.5,3.1-.9l.6-.2c.3,0,.5-.2.8-.3.9-.3,1.9-.6,2.7-1.1,4.5-1.9,8.7-4.8,12.4-8.5,2.8-2.8,5.3-6,7.3-9.4,3.8,2.5,7.4,5.2,11,8.2-2.4,3.8-5.5,7.4-9.2,10.4-4.4,3.5-9.1,6.2-14.2,7.9-.8.3-1.6.5-2.5.7-.5.1-1,.2-1.4.4-.3,0-.5.1-.8.2-.4.1-.8.2-1.2.3l-2.1.3c-.5,0-1,.1-1.5.2-.9.1-1.7.3-2.5.3h-4.3c-1.3.2-2.7,0-4,0l-4.2-.4c-1.8-.3-3.6-.7-5.4-1-1-.2-2-.4-3-.6-.7-.1-1.5.3-1.6,1.1-.2.7.3,1.5,1,1.6,1,.2,2,.5,2.9.7,1.8.4,3.6.9,5.5,1.2l4.2.5c1.4.2,2.9.4,4.4.4h4.3c1,0,2,0,2.9-.2.5,0,1-.1,1.5-.2l2.2-.2c.5,0,1-.2,1.5-.3.2,0,.5-.1.8-.2.5-.1,1-.2,1.4-.3.9-.2,1.9-.4,2.8-.7,5.6-1.6,10.9-4.3,15.8-8.1,4-3.1,7.4-6.7,10.2-10.6,2.6,2.3,5,4.6,7.2,7l.4.5c.2.2.5.5.7.7,16.5,17.7,27.4,39.5,31.8,63,.5,2.9.9,5.6,1.2,8,1.8,17.5,11.4,86.2,55.8,127.5-8.2-2.6-16.4-5.2-24.5-8-5.7-1.8-11.3-3.6-16.8-5.4-2.4-4.8-4.5-9.7-6.2-14.7-6.8-19.9-10.9-38.7-14.9-56.9l-.2-.9c-4.6-22-17.8-75-41.4-92-.3-.2-.5-.4-.7-.6-.1-.1-.3-.3-.4-.4-3.4-3-6.5-5.6-9.7-7.8l-.4-.3c-.4-.3-.8-.3-1.3-.2l-.5.2c-.4.2-45.1,15.8-66.8-.6-20.6-15.5-48.7-36.8-51.9-41.5-.9-1.4-1.4-3.2-1.4-5.5,1.6-.5,4.2-1.1,8-1.9ZM279.7,594.4c17.9,6,35.9,11.6,53.8,16.7,11.4,5.8,24.4,10,39.2,12,13.1,1.7,25.2,1.3,36.2-1.2,10.5-.6,20.5-2.3,30.2-5.3,8.6-2.6,16.7-6.7,24.5-12.2v15.2c-3.3,5-6.9,9.9-10.7,14.5-7.8,6.1-16.7,11.4-26.8,15.6-3.4,1.4-7.1,2.6-10.9,3.7l-.7.2c-24.4,6.4-51.6,3.3-78.7-9-26-11.8-48.1-30.5-62.8-52.4,2.2.7,4.4,1.5,6.6,2.3ZM870.8,705.5c6.1,5.5,12.2,11.8,18.3,18.9,4.7,5.5,9.8,10,15,13.9-15.1-9.8-26.8-21.6-33.8-29.6.2-1,.4-2.1.5-3.1ZM962.2,755.9c4.5,0,8.8-.2,12.9-.7-14.5,2.3-28.1.9-40.4-2.7,9.4,2.4,18.7,3.3,27.5,3.3ZM589.4,429.6s0,0,0,0c-9.5,5.2-18.5,11.5-26.7,18.9-1.7-1.9-3.6-3.6-5.7-5.1.5-1,.6-2.1.2-3.1,0-.2-.2-.4-.3-.6,9.2-5.2,19.6-8.5,31.2-9.9.5,0,.9,0,1.4-.1ZM549.5,444.4c3.8,1.8,7,4.3,9.7,7.3-6.6,6.3-12.5,13.2-17.6,20.5-.8-.6-1.6-1.2-2.4-1.7.6-1,.7-2.1.2-3.2-.5-1.3-1.8-2.2-3.2-2.4-1.3-.2-2.5.4-3.3,1.4-.2.3-.4.5-.5.8-.7-.3-1.5-.5-2.1-.6,2.7-5.4,5.9-10.1,9.7-14,2.9-3,6.1-5.7,9.4-8.1ZM463.4,571.7c-8.4,14.6-18.8,27.1-32.2,35.6-7.4,2.2-15.1,3.5-23.2,3.9-19.6,1.1-40.1-1.3-61.7-7.1-9.4-2.6-18.8-5.3-28.2-8.1-12.2-9.4-23-21.6-32.1-36.6-.1-.7-.7-1.8-2-4.2-6.1-11.2-24.6-45.3-28.4-90.7-.3-2.6-.7-5.4-1.2-8.4-4.5-24.5-16-47.2-33.2-65.6-.3-.3-.5-.6-.8-.8l-.4-.4c-2.6-2.7-5.3-5.3-8.2-7.9.3-1.6.4-3.2.5-5,0-2,0-4.1-.3-6-.3-2.4-.8-4.8-1.5-7.2,6.2,4.8,11.9,9.8,17.1,15.3l.5.5c.2.2.5.5.7.7,23.4,24.9,37.9,58.1,43.4,98.9,10.4,53.9,47.4,97.6,89.9,106.5,28.7,6,54.7-5.5,73.1-32.2,17-24.8,25.1-48.2,32.9-70.8,3.6-10.4,7.1-20.6,11.4-30.6,0,.1.2.2.3.4-10.9,23.8-16.4,49.2-16.4,76.3l.2,43.4ZM814.8,665.9c-23.4,2.5-48.4,11.7-75.5,21.7-16.5,6.1-33.6,12.4-51.9,17.8-3.8,1.1-7.7,2.1-12,3.1,0,0-1.9.4-2.2.5,0,0,0,0,0,0-67,14.1-94.5-23.2-99.5-38.8-2.7-8.5-3.4-21.7,2.6-33.3,0,0,0-.2.1-.2,0-.2.6-1.1.7-1.2,0,0,0-.2.1-.2,1.2-2,2.5-3.9,3.9-5.5,11.8-13.6,34-18.6,64.2-14.4,3.1.4,6.8.9,10.5.8,1.9,0,3.9-.1,6.1-.2.4,0,.8,0,1.2,0h.3c16.1-1,31.5-4.3,45.8-10,.5-.2,1.1-.4,1.6-.6,20.7-8.5,38.6-21.4,53.1-38.5,5.1-6,9.7-12.5,13.8-19.4,1.4,1.6,2.8,3.3,4.1,5,11.5,14.9,19.9,32.9,25.1,53.8,4.5,18.2,7.1,38.1,7.7,59.8ZM774.6,543.6c-4.1,7.1-8.8,13.8-14.1,20-.6.7-1.2,1.4-1.8,2l-.5.5c-7.8.2-54.8.1-68.3-34.7,7.3-5.4,13.4-12,18.2-19.6,8.3,9.1,18.3,14.9,29.9,17.2,0,1.2.5,2.4,1.6,3.2,1.5,1.1,3.7,1.2,5.1-.7.4-.5.6-1,.7-1.5,4.3.3,8.7.2,13.3-.3,5.8,4.1,11.1,8.7,15.9,13.8ZM752.3,525.6c-12.7.4-27.8-3-40.3-16.4,8.9,2,17.2,4.7,24.8,8.1,5.5,2.5,10.6,5.2,15.5,8.3ZM600.6,517.3c18.8-8.4,41.6-12.6,68.3-12.6s25.8,1.1,37.2,3.2c-.7.6-1.4,1.2-2.1,1.8-.1,0-.2.2-.3.3-4.7,7.1-10.6,13.3-17.7,18.4l-.4.3c-.2.1-.4.3-.6.4-6.7,4.7-14.3,8.3-22.8,10.7,0,0-.1,0-.1,0-1.9.6-3.9,1.1-5.9,1.5-1.8.4-3.5.7-5,.9-8.2,1.3-16.9,1.6-25.8.9-10.6-.8-21.1-1-31.1-.5h-.9c-.4,0-.8,0-1.2,0-12.6.8-23.8,2.7-33.8,5.3,11.1-13,25.1-23.2,42.2-30.8ZM628.1,351.6c16.2-5.2,34.6-7.9,55-7.9s32.7,2.1,47.9,6.3c15.2,4.2,28.9,9.6,41.2,16.1,12.3,6.6,22.9,13.9,31.8,22,8.9,8.1,15.7,16.4,20.4,24.7,5.8,10.5,7.1,21.2,3.9,32.2-3.1,7.9-8.1,13.1-14.9,15.7-6.8,2.6-15.1,3.4-24.7,2.4-9.7-1-20.7-3.5-33-7.5-12.3-3.9-25.3-8.2-38.9-13-17.3-5.8-34.7-11-52.2-15.7-17.5-4.7-34.8-7.5-51.8-8.2-17-.8-33.1,1.3-48.3,6.3-15.2,5-28.5,14-40.1,27.1,7.3-15.7,16-30.2,25.9-43.6,9.9-13.4,21.3-24.9,34.2-34.6,12.8-9.7,27.4-17.1,43.6-22.4ZM416,669.5c-27.7,20.4-61.1,30.6-100.3,30.6s-35.1-2.1-51.6-6.3c-16.5-4.2-31.5-9.8-44.9-16.8-13.4-7-25-14.8-34.8-23.5-9.8-8.7-16.9-17.5-21.4-26.4-6.7-12.9-8.1-24.6-4.2-35.2,2.8-8.4,8-14,15.5-16.8,7.6-2.8,16.8-3.6,27.7-2.5,10.9,1.1,22.9,3.8,36.1,8,8.9,2.9,18.2,5.9,27.8,9.2,15.1,24.9,39.2,46.1,68,59.1,9.8,4.4,19.9,7.8,29.9,9.9.8.2,1.5.3,2.3.5h.5c7.6,1.5,15.2,2.3,22.5,2.3s14.5-.7,21.4-2.1c2.5-.5,4.6-1,6.5-1.6,3.7-1,7.3-2.3,10.8-3.7,4.4-1.8,8.6-3.9,12.8-6.2-7.6,7.9-15.9,15.1-24.7,21.6ZM807.1,747.8c-5.2,22.3-13.6,41.6-25.1,58.1-11.5,16.5-26.6,29.5-45.2,38.9-18.6,9.4-41.2,14.1-67.9,14.1s-49.5-4.7-68.3-14.1c-18.8-9.4-34-22.4-45.5-38.9-11.5-16.5-19.9-35.9-25.1-58.1-1.6-6.9-3-13.9-4.1-21.1,32,27,65.9,35.2,98.1,35.2,28.6,0,55.9-6.5,79.3-12.1l7-1.7c2.7-.6,5.6-1.4,9-2.4.4-.1.8-.3,1.3-.4l.7-.2c16.8-5.1,33.5-12.7,48.3-19.4,15.6-7,30.2-13.6,43.9-17.7-1.3,13.8-3.4,27.1-6.4,39.7Z"/>
</svg>